<?xml version="1.0" encoding="UTF-8" standalone="no"?>
<svg
   xmlns:dc="http://purl.org/dc/elements/1.1/"
   xmlns:cc="http://creativecommons.org/ns#"
   xmlns:rdf="http://www.w3.org/1999/02/22-rdf-syntax-ns#"
   xmlns:svg="http://www.w3.org/2000/svg"
   xmlns="http://www.w3.org/2000/svg"
   xmlns:sodipodi="http://sodipodi.sourceforge.net/DTD/sodipodi-0.dtd"
   xmlns:inkscape="http://www.inkscape.org/namespaces/inkscape"
   width="210mm"
   height="297mm"
   viewBox="0 0 210 297"
   version="1.1"
   id="svg20404"
   inkscape:version="1.0.2 (e86c870879, 2021-01-15)"
   sodipodi:docname="terno.svg">
  <defs
     id="defs20398" />
  <sodipodi:namedview
     id="base"
     pagecolor="#ffffff"
     bordercolor="#666666"
     borderopacity="1.0"
     inkscape:pageopacity="0.0"
     inkscape:pageshadow="2"
     inkscape:zoom="0.7"
     inkscape:cx="509.07543"
     inkscape:cy="180.30095"
     inkscape:document-units="mm"
     inkscape:current-layer="layer1"
     inkscape:document-rotation="0"
     showgrid="false"
     inkscape:window-width="1920"
     inkscape:window-height="1016"
     inkscape:window-x="0"
     inkscape:window-y="27"
     inkscape:window-maximized="1" />
  <metadata
     id="metadata20401">
    <rdf:RDF>
      <cc:Work
         rdf:about="">
        <dc:format>image/svg+xml</dc:format>
        <dc:type
           rdf:resource="http://purl.org/dc/dcmitype/StillImage" />
        <dc:title></dc:title>
      </cc:Work>
    </rdf:RDF>
  </metadata>
  <g
     inkscape:label="Layer 1"
     inkscape:groupmode="layer"
     id="layer1">
    <path
       style="fill:#000000;stroke-width:1"
       d="m 38.923912,97.050952 c -1.33196,-0.74817 -2.559842,-1.57833 -2.728625,-1.84478 -0.437893,-0.69129 -0.389252,-2.56483 0.07874,-3.03282 0.218031,-0.21803 0.442941,-1.24197 0.499805,-2.27542 0.0569,-1.03344 0.49947,-4.67189 0.98357,-8.08543 0.48411,-3.41354 1.16084,-9.54024 1.50386,-13.61488 l 0.62365,-7.40842 -0.80376,-1.12878 c -1.26903,-1.78219 -1.34797,-4.48896 -0.24775,-8.49485 0.81808,-2.97863 0.85723,-3.37304 0.3623,-3.65002 -0.48946,-0.27392 -0.46897,-0.402 0.17382,-1.08622 0.89389,-0.9515 1.6212,-6.7066 1.36065,-10.76661 -0.15261,-2.37792 -0.26662,-2.70924 -1.18777,-3.45181 -0.56043,-0.45177 -1.65396,-0.98721 -2.43007,-1.18985 -0.776117,-0.20264 -3.556126,-1.068 -6.177804,-1.92302 -2.621677,-0.85502 -5.697225,-1.66395 -6.834549,-1.79762 -1.860647,-0.21868 -2.137658,-0.36133 -2.764377,-1.42354 -0.383083,-0.64928 -0.802642,-1.11491 -0.932353,-1.03475 -0.129711,0.0802 -2.448254,0.3312 -5.152317,0.55785 -4.14236,0.3472 -4.974641,0.33461 -5.2858753,-0.0799 -0.203169,-0.27062 -0.64721,-0.59628 -0.986758,-0.72369 -0.812103,-0.30472 -0.812103,-2.05871 0,-3.03279 0.386344,-0.4634 1.5414273,-0.95971 3.0868053,-1.32633 3.637977,-0.86306 3.679104,-0.89324 1.800821,-1.32163 -1.852321,-0.42246 -2.783658,-1.31604 -2.09227,-2.00742 0.596732,-0.59674 6.480018,0.28434 7.950243,1.19062 0.638358,0.39349 1.478151,0.75106 1.866206,0.79459 0.388056,0.0435 3.404306,1.06525 6.702778,2.27049 3.298472,1.20525 6.552847,2.27678 7.231944,2.38119 0.679097,0.10441 1.403936,0.32174 1.610736,0.48295 0.36445,0.28409 2.13005,0.52166 6.15038,0.82756 1.06715,0.0812 3.47371,0.34382 5.34791,0.58361 3.3153,0.42415 3.41299,0.46275 3.60532,1.42437 0.40661,2.0331 4.65604,2.4486 6.27276,0.61334 0.77285,-0.87733 1.50378,-0.83488 3.76714,0.21878 2.64764,1.23255 3.93742,2.22574 3.93742,3.03197 0,0.38094 0.23209,0.78167 0.51574,0.89052 0.28366,0.10885 0.62368,0.53801 0.75562,0.9537 0.392235,1.23584 2.766515,4.23953 6.142535,7.77092 3.4911,3.65174 3.64028,4.05175 2.47163,6.62722 -0.3838,0.8458 -0.70634,1.85533 -0.71678,2.24338 -0.0104,0.38806 -0.26211,1.02306 -0.55929,1.41111 -0.53161,0.69416 -0.55478,0.68846 -1.43443,-0.35277 -0.49175,-0.58209 -1.79137,-2.07952 -2.88803,-3.32762 -1.09667,-1.24811 -2.901205,-3.35147 -4.010085,-4.67414 -2.26091,-2.69681 -2.21686,-2.70696 -3.23798,0.74565 -1.12412,3.80082 -0.50304,11.67155 1.06193,13.45749 0.26842,0.30633 0.48803,0.80815 0.48803,1.11517 0,0.63162 -1.75074,2.22115 -2.82032,2.56062 -0.78017,0.24762 -0.71936,-0.57206 -0.91601,12.34783 -0.12355,8.11779 0.50699,12.57903 2.13834,15.12925 l 1.18919,1.85899 -1.14356,0.41352 c -0.62896,0.22743 -1.64823,0.41351 -2.26505,0.41351 -0.76168,0 -1.12148,0.16977 -1.12148,0.52917 0,0.70489 2.07269,0.70441 3.76065,-7.1e-4 1.19005,-0.49723 1.34762,-0.48201 2.54631,0.24596 2.405835,1.46109 2.396275,2.15882 -0.0452,3.29547 -1.80694,0.84125 -4.62521,1.16663 -4.99016,0.57612 -0.0996,-0.16117 -1.06593,-0.49105 -2.14739,-0.73307 -2.14987,-0.48112 -3.51049,-1.78432 -2.70447,-2.59034 0.69707,-0.69707 0.44958,-2.59039 -0.844,-6.45678 -0.87005,-2.60048 -1.3354,-4.77037 -1.53315,-7.14902 -0.30218,-3.6349 -1.80658,-11.35291 -2.21289,-11.35291 -0.49289,0 -5.22617,12.7627 -6.33959,17.09393 -0.56145,2.18407 -0.67492,3.3664 -0.49241,5.13107 0.13043,1.26118 0.28232,2.8838 0.33754,3.60582 0.0708,0.92646 0.4785,1.7313 1.38533,2.73505 1.47502,1.63267 1.51763,1.80586 0.6398,2.60029 -0.48021,0.43458 -1.31443,0.58198 -3.26319,0.57654 -2.37744,-0.007 -2.84064,-0.13234 -5.03981,-1.36763 z m 7.0736,-0.68722 c 0.23019,-0.1286 -0.6557,-0.23317 -1.96863,-0.23236 -2.20003,0.001 -2.49152,-0.0901 -3.71876,-1.16682 -0.73238,-0.64255 -1.41425,-1.08564 -1.51525,-0.98464 -0.28493,0.28493 1.96949,2.10257 3.20659,2.58534 1.0505,0.40995 3.08524,0.30734 3.99605,-0.20152 z m -6.55431,-3.4059 c 1.6842,-1.23984 2.457,-1.5875 3.52877,-1.5875 0.89033,0 1.3723,-0.16097 1.3723,-0.4583 0,-0.59916 -1.98932,-1.30559 -3.67654,-1.30559 h -1.33339 l 0.21216,-1.6757 c 0.11668,-0.92163 0.35874,-4.77132 0.53791,-8.55486 0.43188,-9.12037 0.65438,-9.81889 4.11402,-12.91525 2.38074,-2.13075 3.98233,-4.17974 3.58089,-4.58118 -0.0796,-0.0796 -0.9201,-0.0385 -1.86775,0.0914 -1.49831,0.20537 -2.00644,0.51602 -3.8968,2.3824 l -2.17383,2.14624 -0.23958,3.88056 c -0.13178,2.1343 -0.47699,5.60784 -0.76714,7.71897 -0.29015,2.11112 -0.67389,5.12737 -0.85275,6.70277 -0.43728,3.8516 -0.91468,6.92871 -1.22352,7.88618 -0.245038,0.7597 -0.04274,1.85736 0.34232,1.85736 0.10255,0 1.15687,-0.71438 2.34293,-1.5875 z m 4.69583,1.02059 c 0.30691,-0.11778 0.55802,-0.4184 0.55802,-0.66806 0,-0.35134 -0.3372,-0.37816 -1.49209,-0.11867 -0.82064,0.18438 -1.77314,0.26174 -2.11666,0.17191 -0.706,-0.18462 -0.86211,0.32153 -0.18361,0.59531 0.63823,0.25753 2.58348,0.26926 3.23434,0.0195 z m 14.12201,-2.10103 c 0.82906,-1.26532 3.07278,-3.32929 3.61923,-3.32929 0.54134,0 0.57221,-0.33516 0.0975,-1.05833 -0.23368,-0.35597 -0.43397,-0.40528 -0.61196,-0.15066 -0.14552,0.20818 -0.5424,0.48102 -0.88195,0.60629 -0.33954,0.12528 -0.61736,0.47455 -0.61736,0.77615 0,0.49331 -0.0855,0.49233 -0.85169,-0.01 -0.64872,-0.42506 -0.90733,-0.9945 -1.08514,-2.38939 -0.1284,-1.00723 -0.68108,-3.4982 -1.22819,-5.53549 -0.54711,-2.03729 -1.25375,-5.64992 -1.57032,-8.02805 -0.31656,-2.37813 -0.72393,-4.71408 -0.90525,-5.19098 -0.36346,-0.95599 -0.29464,-1.03527 1.21247,-1.39671 0.80515,-0.1931 0.92462,-0.32236 0.52917,-0.57255 -0.28092,-0.17772 -1.01184,-0.32556 -1.62427,-0.32853 -0.93871,-0.005 -1.08454,-0.11616 -0.92899,-0.71096 0.24663,-0.94312 -0.39824,-0.89553 -1.1951,0.0882 -0.35363,0.43657 -1.34574,1.03188 -2.2047,1.32292 -1.79987,0.60986 -2.49223,1.58928 -0.85404,1.20814 0.55257,-0.12856 1.37882,-0.46776 1.83613,-0.75379 0.4573,-0.28602 0.96387,-0.38619 1.1257,-0.22261 0.16183,0.16359 0.63742,1.95719 1.05687,3.98579 0.41945,2.0286 0.90621,4.06598 1.08169,4.52752 0.17547,0.46154 0.23284,0.97864 0.12748,1.14912 -0.39069,0.63215 0.54616,6.02171 1.60129,9.21203 0.5994,1.81235 1.1216,3.77144 1.16044,4.35352 0.0388,0.58209 0.22937,1.17497 0.4234,1.31752 0.21848,0.16051 0.1849,0.26123 -0.0882,0.26458 -0.24253,0.003 -0.44097,0.40228 -0.44097,0.88735 0,1.1315 0.46644,1.12303 1.21677,-0.0221 z m -15.01868,-3.59387 c 0.48248,-0.40244 0.92352,-1.47703 1.26689,-3.0868 0.28972,-1.3582 0.61701,-2.86632 0.72733,-3.35139 0.11031,-0.48507 -0.27043,0.10312 -0.84609,1.30709 -0.57567,1.20396 -1.79579,2.9899 -2.71139,3.96875 l -1.66471,1.77971 h 1.24391 c 0.68416,0 1.57698,-0.27781 1.98406,-0.61736 z m 17.32969,-24.40101 c 0,-0.56621 0.0897,-1.26328 0.19937,-1.54904 0.24559,-0.63999 -1.77324,-3.01114 -2.94209,-3.45554 -0.76123,-0.28941 -0.82224,-0.46295 -0.60818,-1.72992 l 0.23792,-1.40824 -2.58865,0.005 c -1.42376,0.003 -2.77209,0.12213 -2.99629,0.2648 -0.4465,0.28413 -0.76271,3.08676 -0.39029,3.45918 0.12741,0.12741 0.77055,-0.1014 1.4292,-0.50847 l 1.19755,-0.74013 1.08683,1.51339 c 1.73278,2.41285 4.33783,5.17805 4.87815,5.17805 0.31337,0 0.49648,-0.3797 0.49648,-1.02948 z m -17.09229,-4.09366 c -0.97163,-1.43178 -1.14018,-3.40558 -0.67273,-7.87788 0.2192,-2.09727 0.25972,-2.16842 1.23472,-2.16842 0.55444,0 1.00808,-0.15875 1.00808,-0.35278 0,-0.19403 -0.37692,-0.35278 -0.83759,-0.35278 -0.46068,0 -1.4887,-0.22972 -2.28449,-0.51049 l -1.4469,-0.51049 -0.38637,1.48063 c -0.2125,0.81435 -0.61323,2.26351 -0.89051,3.22036 -1.31944,4.55321 0.0589,7.67337 3.67136,8.31061 0.7109,0.1254 1.34009,0.19618 1.39818,0.15728 0.0581,-0.0389 -0.29909,-0.66712 -0.79375,-1.39604 z m 18.73145,-1.06209 1.52475,-0.89357 -0.70001,-1.30607 c -0.38501,-0.71833 -0.70001,-1.65624 -0.70001,-2.08422 0,-0.42799 -0.13989,-0.86461 -0.31086,-0.97027 -0.53756,-0.33224 -0.79631,-5.20842 -0.41643,-7.84774 0.20029,-1.3916 0.99351,-4.2491 1.7627,-6.35 0.76919,-2.10091 1.51851,-4.45484 1.66515,-5.23095 0.26149,-1.3839 0.27063,-1.3669 0.47449,0.88194 0.25167,2.77617 0.83739,4.15212 2.863675,6.72715 2.02931,2.57885 5.6726,6.67841 5.93514,6.67841 0.29154,0 1.43168,-2.70844 1.43168,-3.40102 0,-0.31568 -1.07156,-1.70443 -2.38125,-3.0861 -3.35681,-3.54133 -6.790965,-7.82243 -6.790965,-8.46579 0,-0.29947 -0.3175,-0.71441 -0.70555,-0.92209 -0.38806,-0.20768 -0.70556,-0.67871 -0.70556,-1.04672 0,-0.36802 -0.50533,-1.02895 -1.12295,-1.46874 -1.03696,-0.73838 -1.10151,-0.74697 -0.84297,-0.11221 0.15399,0.37806 0.36246,1.36208 0.46327,2.1867 0.18138,1.48359 0.17173,1.4993 -0.92092,1.4993 -1.10315,0 -1.10353,6.7e-4 -0.40067,0.70354 0.70286,0.70286 0.70256,0.70514 -0.31521,2.38125 -0.56031,0.92274 -1.6433,2.90893 -2.40663,4.41374 -0.76333,1.50482 -1.49461,2.6293 -1.62506,2.49885 -0.48709,-0.48709 -0.2291,9.5719 0.30344,11.83099 0.5512,2.33831 1.48596,4.27719 2.06207,4.27719 0.18366,0 1.02006,-0.40211 1.85868,-0.89357 z m -5.17234,-9.0724 c -0.004,-3.60384 -0.1183,-5.20517 -0.34738,-4.8507 -0.18808,0.29104 -0.3444,2.23573 -0.34737,4.32153 -0.005,3.35498 -0.0892,3.8762 -0.73233,4.51929 -0.45967,0.45966 -1.07575,0.68664 -1.6757,0.61736 -0.76945,-0.0889 -1.01053,-0.35959 -1.27557,-1.43248 -0.17974,-0.72761 -0.45641,-1.32292 -0.61482,-1.32292 -0.2872,0 -0.32629,2.76083 -0.0462,3.26319 0.0811,0.14552 1.2494,0.26459 2.59615,0.26459 h 2.44862 z m -1.82904,3.54541 c 0.23283,-0.23283 0.42333,-0.92012 0.42333,-1.52731 0,-0.91799 -0.13373,-1.09927 -0.79375,-1.07598 -0.61895,0.0218 -0.79375,-0.16621 -0.79375,-0.85393 0,-0.74304 0.1528,-0.87148 0.97014,-0.81553 0.94512,0.0647 0.97014,0.018 0.97014,-1.81094 0,-1.60674 -0.10612,-1.9051 -0.73624,-2.06988 -1.00985,-0.26408 -0.75138,-1.4871 0.30628,-1.44925 0.4305,0.0154 0.78965,-0.064 0.7981,-0.17639 0.008,-0.11242 0.14323,-0.86459 0.29951,-1.67148 0.27243,-1.40655 0.24531,-1.47279 -0.65738,-1.60527 -0.91049,-0.13363 -0.95654,-0.0562 -1.39634,2.34902 -0.25014,1.36797 -0.57459,2.64597 -0.721,2.84 -0.14641,0.19403 -0.28042,0.5909 -0.29779,0.88194 -0.0174,0.29104 -0.12034,1.93023 -0.22882,3.64263 -0.10848,1.7124 -0.10654,3.26021 0.004,3.43958 0.2848,0.46081 1.35117,0.40488 1.85325,-0.0972 z m -13.23688,-5.61688 c -0.21767,-0.21767 -0.31982,-0.59368 -0.22699,-0.83558 0.0928,-0.24189 -0.15771,-0.52519 -0.55674,-0.62954 -0.39903,-0.10435 -0.7255,-0.0437 -0.7255,0.13482 0,0.63081 0.88209,1.72607 1.39013,1.72607 0.38053,0 0.4116,-0.10326 0.1191,-0.39577 z m 11.19077,-0.47384 c 0,-0.28427 -0.22365,-1.19708 -0.49701,-2.02848 -0.27335,-0.83139 -0.61158,-2.06726 -0.75162,-2.74635 -0.14003,-0.6791 -0.8509,-3.0069 -1.57969,-5.1729 -0.88265,-2.62329 -1.20738,-4.05585 -0.97258,-4.29066 0.65597,-0.65596 0.14551,-1.16754 -0.62586,-0.62724 -0.7111,0.49807 -0.69682,0.57006 1.31328,6.62009 1.1177,3.3641 2.03736,6.60602 2.04367,7.20427 0.006,0.59825 0.11731,1.19357 0.24666,1.32292 0.4026,0.40259 0.82315,0.2587 0.82315,-0.28165 z m -10.03508,-7.15608 c -0.18132,-4.51672 -0.40194,-6.55675 -0.79166,-7.32014 -0.29716,-0.58209 -0.52635,-1.85209 -0.50931,-2.82222 0.017,-0.97014 -0.20491,-2.24014 -0.49322,-2.82223 l -0.5242,-1.05833 0.14505,1.24726 c 0.18626,1.60152 -0.12101,3.2151 -0.56051,2.94348 -0.18756,-0.11592 -2.72307,-0.82306 -5.634454,-1.57143 -5.74729,-1.47732 -8.947341,-2.75457 -9.741278,-3.88807 -0.496925,-0.70946 -0.518023,-0.71044 -1.130756,-0.0528 -0.34341,0.36861 -0.735845,1.02138 -0.872077,1.45061 -0.21624,0.68131 -0.143323,0.75597 0.574204,0.58791 0.981248,-0.22984 2.951926,0.26817 9.99412,2.5256 7.058671,2.26271 7.484631,2.53622 7.792951,5.00394 0.23937,1.91588 -0.0459,8.97557 -0.42351,10.48002 -0.15407,0.61387 0.013,0.85038 0.80416,1.13863 0.54924,0.2001 1.13885,0.37635 1.31024,0.39167 0.17824,0.016 0.20403,-2.65236 0.0602,-6.23395 z m 11.59063,-2.84678 0.25371,-4.34608 -0.76886,0.41148 c -0.64693,0.34623 -0.73506,0.61586 -0.55574,1.70025 0.11722,0.70882 0.22852,2.87627 0.24733,4.81654 0.0442,4.56122 0.48773,3.17065 0.82356,-2.58219 z m 6.11328,0.53637 c 1.78626,-3.08946 1.81462,-2.96687 -1.03844,-4.48761 l -1.30709,-0.69671 -0.22792,1.21489 c -0.12535,0.66819 -0.15281,1.42184 -0.061,1.67479 0.0918,0.25295 0.28429,-0.1354 0.42775,-0.86301 0.27632,-1.40136 0.5627,-1.61064 1.18233,-0.86403 0.27453,0.33078 0.24659,0.99551 -0.10009,2.38125 -0.50676,2.02568 -1.02649,5.82544 -0.67308,4.92098 0.11372,-0.29105 0.92263,-1.76729 1.79756,-3.28055 z m -3.4603,-1.04098 c 0.0205,-1.096 -0.0962,-1.32292 -0.68076,-1.32292 -0.46322,0 -0.70555,-0.23518 -0.70555,-0.68473 0,-0.9005 0.60728,-1.24711 1.25017,-0.71355 0.42233,0.35049 0.51372,0.29314 0.51372,-0.32241 0,-0.59676 -0.21484,-0.74875 -1.05834,-0.74875 -0.91861,0 -1.05874,0.12807 -1.0614,0.97014 -0.002,0.53357 -0.10317,1.80357 -0.22552,2.82222 -0.20737,1.72642 -0.17126,1.85208 0.53223,1.85208 0.41508,0 0.76585,0.19844 0.77949,0.44097 0.0543,0.96597 0.63278,-1.05618 0.65596,-2.29305 z m -3.75351,-3.86245 1.48525,-0.77564 -1.05833,-0.24095 c -0.83252,-0.18954 -0.88897,-0.24986 -0.26458,-0.2827 1.31217,-0.069 0.89301,-0.74729 -0.4618,-0.74729 -0.74719,0 -1.16726,-0.14283 -1.03751,-0.35278 0.11992,-0.19403 0.68491,-0.35278 1.25554,-0.35278 1.27603,0 1.33914,-0.45487 0.13897,-1.0017 -1.16715,-0.53179 -3.07865,-0.52443 -3.61701,0.0139 -0.49079,0.49079 -0.56622,1.91616 -0.11612,2.19434 0.16897,0.10442 0.40312,0.66942 0.52035,1.25554 0.26234,1.31173 1.05866,1.38493 3.15524,0.29003 z m 8.29951,-1.55862 c 0.67227,-1.84484 0.39412,-2.60463 -0.9535,-2.60463 -2.27179,0 -3.0352,1.02084 -0.83367,1.11479 1.30249,0.0556 1.30521,0.0587 0.17639,0.19874 -1.40185,0.17397 -1.4636,0.54165 -0.17639,1.05029 l 0.97014,0.38335 -1.14653,0.0375 c -1.33471,0.0437 -1.48233,0.4715 -0.35278,1.02236 1.25421,0.61166 1.74885,0.35488 2.31634,-1.20243 z m 1.47062,1.01135 c -0.003,-0.33955 -0.15929,-0.85549 -0.34738,-1.14653 -0.2957,-0.45757 -0.3427,-0.44954 -0.34737,0.0593 -0.003,0.32368 -0.10176,0.83962 -0.21954,1.14653 -0.14051,0.36617 -0.0192,0.55802 0.35278,0.55802 0.3118,0 0.56448,-0.27782 0.56151,-0.61736 z m -5.18171,-0.82735 c 0.19367,-0.30951 0.24634,-0.9842 0.11706,-1.4993 -0.18909,-0.7534 -0.44219,-0.93655 -1.29423,-0.93655 -1.3348,0 -2.05216,1.24496 -1.4094,2.44596 0.48227,0.90113 2.02019,0.89512 2.58657,-0.0101 z m -9.27678,-0.31918 c 0.40973,-0.26479 0.30168,-0.3432 -0.47871,-0.34738 -0.77302,-0.004 -0.95799,-0.13543 -0.79375,-0.56342 0.11777,-0.30691 0.21413,-0.70379 0.21413,-0.88194 0,-0.17816 0.22526,-0.32393 0.50058,-0.32393 0.55481,0 2.66867,-1.12587 2.67219,-1.42324 0.002,-0.20723 -1.92029,-1.39898 -2.25706,-1.39898 -0.11559,0 -0.21016,0.24726 -0.21016,0.54947 0,0.30221 -0.40565,1.27608 -0.90146,2.16415 -0.49581,0.88808 -0.81829,1.83144 -0.71663,2.09636 0.21425,0.55833 1.20601,0.6232 1.97087,0.12891 z m -1.21672,-3.34006 c 0.28114,-0.67287 0.51117,-1.28985 0.51117,-1.37107 0,-0.29072 -2.33269,-0.6611 -4.54623,-0.72185 l -2.25317,-0.0618 1.32334,1.14395 c 1.03977,0.8988 2.83415,1.80944 4.34753,2.20634 0.0584,0.0153 0.33622,-0.52267 0.61736,-1.19554 z m -31.062444,-3.04012 c 5.358262,-0.42867 6.526389,-0.65532 6.526389,-1.26633 0,-0.79428 -0.639502,-1.80998 -2.055663,-3.26496 -1.660929,-1.70645 -2.942382,-2.33901 -5.35267,-2.64223 -1.067153,-0.13424 -2.297465,-0.33179 -2.734028,-0.43899 -0.57196,-0.14045 -0.79375,-0.0382 -0.79375,0.36578 0,0.3246 0.408487,0.65078 0.970139,0.77466 2.909895,0.64178 3.726589,1.37063 1.965339,1.75392 -4.119436,0.8965 -5.7150013,1.42394 -6.0811573,2.01025 -0.386468,0.61884 -0.362881,0.62508 0.420912,0.11152 0.456678,-0.29922 1.6137613,-0.6245 2.5712953,-0.72283 l 1.740972,-0.17878 -1.787877,0.46439 c -1.705193,0.44291 -3.9481933,1.65267 -3.0641903,1.65267 0.231111,0 0.328824,0.23812 0.217141,0.52916 -0.264236,0.68859 0.8243623,0.70147 2.1994763,0.026 1.385908,-0.68075 3.670172,-1.07879 3.670172,-0.63953 0,0.19082 -0.62568,0.447 -1.3904,0.56928 -0.764719,0.12229 -1.806147,0.3804 -2.314283,0.5736 -1.19147,0.45299 -0.780963,1.20056 0.479975,0.87407 0.512409,-0.13267 2.677903,-0.38093 4.812208,-0.55167 z m -7.0965603,-1.66736 c 0.233877,-0.37842 3.2376093,-1.12468 4.5268873,-1.12468 1.220772,0 0.53128,0.32285 -1.514178,0.70902 -1.052354,0.19867 -2.211063,0.45493 -2.5749103,0.56945 -0.404906,0.12745 -0.574743,0.0678 -0.437799,-0.15379 z m 6.9201713,-0.0753 c 0,-0.20891 0.550527,-0.60986 1.223392,-0.89101 1.399655,-0.58481 3.715497,-0.68353 3.715497,-0.15838 0,0.19402 -0.642883,0.35277 -1.42863,0.35277 -0.785746,0 -1.896996,0.24221 -2.469444,0.53823 -0.64524,0.33367 -1.040815,0.39386 -1.040815,0.15839 z"
       id="path20994" />
  </g>
</svg>
