<?xml version="1.0" encoding="UTF-8" standalone="no"?>
<svg
   xmlns:dc="http://purl.org/dc/elements/1.1/"
   xmlns:cc="http://creativecommons.org/ns#"
   xmlns:rdf="http://www.w3.org/1999/02/22-rdf-syntax-ns#"
   xmlns:svg="http://www.w3.org/2000/svg"
   xmlns="http://www.w3.org/2000/svg"
   xmlns:sodipodi="http://sodipodi.sourceforge.net/DTD/sodipodi-0.dtd"
   xmlns:inkscape="http://www.inkscape.org/namespaces/inkscape"
   width="210mm"
   height="297mm"
   viewBox="0 0 210 297"
   version="1.1"
   id="svg18470"
   inkscape:version="1.0.2 (e86c870879, 2021-01-15)"
   sodipodi:docname="vestido.svg">
  <defs
     id="defs18464" />
  <sodipodi:namedview
     id="base"
     pagecolor="#ffffff"
     bordercolor="#666666"
     borderopacity="1.0"
     inkscape:pageopacity="0.0"
     inkscape:pageshadow="2"
     inkscape:zoom="1.4"
     inkscape:cx="298.23078"
     inkscape:cy="208.7282"
     inkscape:document-units="mm"
     inkscape:current-layer="layer1"
     inkscape:document-rotation="0"
     showgrid="false"
     inkscape:window-width="1899"
     inkscape:window-height="752"
     inkscape:window-x="0"
     inkscape:window-y="114"
     inkscape:window-maximized="0" />
  <metadata
     id="metadata18467">
    <rdf:RDF>
      <cc:Work
         rdf:about="">
        <dc:format>image/svg+xml</dc:format>
        <dc:type
           rdf:resource="http://purl.org/dc/dcmitype/StillImage" />
        <dc:title></dc:title>
      </cc:Work>
    </rdf:RDF>
  </metadata>
  <g
     inkscape:label="Layer 1"
     inkscape:groupmode="layer"
     id="layer1">
    <path
       style="fill:#000000;stroke-width:0.264583"
       d="m 39.452637,83.008115 c -1.215319,-1.26852 -2.267445,-1.34209 -4.577818,-0.3201 -1.464612,0.64786 -1.865765,0.68865 -3.277218,0.33325 -0.884579,-0.22274 -2.009267,-0.72036 -2.499308,-1.10583 -0.768881,-0.6048 -1.21376,-0.66904 -3.246347,-0.46876 l -2.355366,0.2321 -0.477237,-1.07816 c -0.595796,-1.346 -1.413433,-1.57809 -3.750953,-1.06476 -1.458007,0.32019 -1.953932,0.30932 -2.389774,-0.0524 -0.302485,-0.25104 -0.472993,-0.53342 -0.378905,-0.62751 0.09409,-0.0941 -0.462108,-0.59632 -1.23599,-1.11606 -1.971575,-1.32412 -3.78509,-3.09457 -4.412356,-4.30757 -0.293119,-0.56683 -0.676968,-0.94159 -0.8529981,-0.8328 -0.406384,0.25116 -1.122212,-1.04501 -0.784014,-1.41963 0.138695,-0.15364 0.07037,-0.17542 -0.151833,-0.0484 -0.222205,0.127 -0.4874,0.0136 -0.589323,-0.25201 -0.1032,-0.26893 0.4273,-1.08112 1.197229,-1.83294 0.9203221,-0.89867 1.2647801,-1.46779 1.0302961,-1.70227 -0.554183,-0.55418 -0.413338,-1.68587 0.308832,-2.48146 0.918869,-1.01228 2.566892,-4.07968 2.191893,-4.07968 -0.590312,0 -0.730491,-1.11455 -0.206132,-1.63891 0.290486,-0.29049 0.528154,-0.66423 0.528154,-0.83054 0,-0.16631 0.25967,-0.56204 0.577045,-0.87942 0.430665,-0.43066 0.475409,-0.67868 0.176388,-0.9777 -0.220359,-0.22036 -0.400654,-0.91423 -0.400654,-1.54194 0,-0.92125 0.263721,-1.33086 1.36783,-2.1245 1.238864,-0.89051 1.331198,-1.06362 0.979315,-1.83592 -0.351927,-0.77239 -0.24131,-0.97947 1.174637,-2.19898 1.050295,-0.90458 1.568129,-1.63437 1.578324,-2.22435 0.02635,-1.52592 7.081409,-8.38051 11.599251,-11.26969 1.075611,-0.68786 1.646332,-0.5533 0.992862,0.23408 -0.219993,0.26507 -0.318153,0.56379 -0.218133,0.66381 0.23571,0.23571 -0.71483,1.02415 -1.346478,1.11686 -0.612621,0.0899 -3.271689,2.17422 -4.561144,3.57526 -0.535725,0.58208 -1.371687,1.84099 -1.85769,2.79758 -0.824581,1.62301 -0.844822,1.78215 -0.30281,2.38107 0.55499,0.61325 0.637088,0.57511 1.845138,-0.85731 2.262143,-2.68229 4.767763,-5.25547 5.497499,-5.64572 0.516149,-0.27603 0.416132,-0.0425 -0.361079,0.84305 -1.513996,1.72506 -2.537217,3.46424 -3.532915,6.00496 -0.890299,2.27177 -1.121781,4.17775 -0.507386,4.17775 0.194029,0 0.463973,-0.002 0.599879,-0.004 0.135906,-0.002 0.205044,-0.68822 0.153643,-1.52406 -0.08678,-1.41126 0.07812,-1.72863 2.31054,-4.4469 3.543278,-4.3144 3.345587,-3.94487 2.737477,-5.117 -0.291115,-0.56113 -0.461621,-1.1921 -0.378901,-1.40215 0.08272,-0.21006 0.346083,0.14931 0.585244,0.7986 0.294902,0.8006 0.523457,1.03715 0.710192,0.735 0.151442,-0.24503 0.126537,-0.83693 -0.05535,-1.31531 -0.459563,-1.20874 -0.09742,-2.07918 0.948185,-2.27906 0.700884,-0.13399 0.991946,0.037 1.397201,0.82065 0.281543,0.54444 0.406664,1.26411 0.27805,1.59928 -0.158953,0.41422 -0.101663,0.52769 0.178885,0.3543 0.227002,-0.1403 0.412729,-0.11731 0.412729,0.0511 0,0.47391 -0.824291,1.40102 -1.397524,1.57184 -0.541673,0.16142 -0.751348,2.06618 -0.266917,2.42474 0.151712,0.11229 0.03265,1.13783 -0.264583,2.27898 -0.617538,2.37088 -0.708205,4.95624 -0.18515,5.2795 0.195397,0.12077 0.462928,-0.061 0.59451,-0.40388 0.399916,-1.04216 4.763897,-6.2831 5.457037,-6.55365 0.868982,-0.33918 0.899612,-1.84991 0.03138,-1.54755 -0.525071,0.18286 -0.516544,0.1369 0.05704,-0.30744 0.718254,-0.55641 2.297813,-0.37873 2.759784,0.31044 0.525198,0.78351 0.280606,1.62138 -0.473316,1.62138 -0.543187,0 -0.683683,-0.15536 -0.521867,-0.57704 0.472991,-1.2326 -1.375098,0.46255 -3.359107,3.08111 -1.858473,2.45287 -1.93869,2.63916 -1.322917,3.07218 0.360537,0.25354 0.655521,0.80123 0.655521,1.21708 0,1.05452 0.414303,0.47439 1.57629,-2.20722 1.125143,-2.59659 2.378141,-4.54089 2.565032,-3.98021 0.06891,0.20674 -0.199694,1.34061 -0.5969,2.5197 -0.397209,1.1791 -0.722199,2.1885 -0.722199,2.24313 0,0.0546 0.457309,0.0993 1.016241,0.0993 0.975672,0 1.015264,-0.0646 0.991822,-1.61845 -0.02646,-1.75311 0.704051,-3.95929 1.207881,-3.64791 0.171511,0.106 0.311836,1.26579 0.311836,2.57732 0,3.14552 0.843991,6.04043 1.761048,6.04043 0.46156,0 0.898437,-0.50426 1.379958,-1.59282 0.558758,-1.26317 0.927237,-1.63736 1.7804,-1.80799 0.591698,-0.11834 1.075817,-0.238 1.075817,-0.26592 0,-0.0279 -0.635,-1.31476 -1.411113,-2.85966 -0.776113,-1.54489 -1.41111,-3.08071 -1.41111,-3.41292 0,-0.3322 -0.331198,-0.83599 -0.735987,-1.11952 -0.565385,-0.39601 -0.658209,-0.66641 -0.400449,-1.16653 0.184547,-0.35807 0.269235,-0.83492 0.188198,-1.05967 -0.08104,-0.22475 0.01797,-0.51081 0.22002,-0.63568 0.209129,-0.12925 0.288512,-0.0216 0.1843,0.25 -0.113297,0.29523 0.288732,0.70202 1.054868,1.06737 0.877522,0.41846 1.175504,0.75299 1.023519,1.14905 -0.117922,0.3073 -0.442936,0.47104 -0.722249,0.36385 -0.338524,-0.1299 -0.272013,0.10493 0.199501,0.70437 0.389038,0.49458 1.034881,1.88284 1.435198,3.08501 0.84759,2.54535 3.755647,6.53127 4.339286,5.94763 0.426662,-0.42666 -0.690163,-3.45716 -2.269628,-6.15862 -0.543838,-0.93017 -0.988801,-1.87066 -0.988801,-2.08997 0,-0.65031 1.692061,1.13489 2.895881,3.05529 0.615161,0.98132 1.157181,1.83982 1.204489,1.90775 0.04731,0.0679 0.25273,0.0205 0.456486,-0.10544 0.217217,-0.13424 -0.706575,-1.56041 -2.233158,-3.4476 -1.431991,-1.77025 -3.03784,-4.02468 -3.568552,-5.00984 -0.900562,-1.67171 -0.685323,-1.50492 3.226769,2.50042 3.709585,3.79802 7.376375,6.75241 7.824465,6.30431 0.0857,-0.0857 -0.41749,-0.93684 -1.11822,-1.89143 -1.10409,-1.50406 -2.57226,-2.88409 -5.319053,-4.99971 -1.310246,-1.00918 -2.734578,-2.62277 -2.410492,-2.7308 0.829056,-0.27636 3.994904,1.63198 6.252895,3.76918 3.5076,3.31995 4.16512,3.70852 5.49239,3.24584 0.59087,-0.20598 1.34765,-0.27211 1.68174,-0.14696 0.54994,0.20602 0.55769,0.16289 0.0819,-0.45585 -0.96319,-1.25267 -2.15113,-2.27091 -2.64939,-2.27091 -0.27096,0 -1.49183,-0.83151 -2.71302,-1.8478 -1.59301,-1.32572 -2.05047,-1.88051 -1.61909,-1.96359 0.5716,-0.11008 5.08696,2.28493 6.32709,3.35598 0.73765,0.63708 3.45087,1.43043 4.26669,1.24759 1.06006,-0.23758 0.68394,-1.1005 -0.58331,-1.33824 -0.69713,-0.13078 -2.06567,-0.95924 -3.2632,-1.9754 -2.15672,-1.83009 -6.83943,-4.66771 -9.783759,-5.92874 -1.489829,-0.63808 -1.861217,-0.67765 -2.734027,-0.29131 -0.555503,0.24589 -1.010007,0.56707 -1.010007,0.71373 0,0.14667 -0.165177,0.26666 -0.367062,0.26666 -0.411416,0 -2.49047,1.39548 -2.890732,1.94028 -0.172786,0.23519 -0.262781,0.23519 -0.269983,0 -0.0059,-0.19403 -0.164693,-0.11465 -0.35278,0.17639 -0.188087,0.29104 -0.344405,0.35502 -0.347376,0.14217 -0.0075,-0.53485 1.223904,-1.90606 1.711674,-1.90606 0.219773,0 0.399592,-0.15875 0.399592,-0.35278 0,-0.19402 0.238125,-0.35277 0.529167,-0.35277 0.291042,0 0.529167,-0.14024 0.529167,-0.31164 0,-0.1714 0.277812,-0.41347 0.61736,-0.53794 2.114603,-0.77517 3.605974,-2.12375 3.008905,-2.72083 -0.782884,-0.78288 -6.272099,2.77555 -6.272099,4.06594 0,0.69603 -1.080677,1.09745 -1.43053,0.53138 -0.109236,-0.17675 -0.52618,-0.32136 -0.926539,-0.32136 -0.595353,0 -0.650738,-0.093 -0.304091,-0.51069 0.30408,-0.3664 0.319315,-0.69036 0.05392,-1.14653 -0.345588,-0.59402 -0.370623,-0.59523 -0.380646,-0.0185 -0.0059,0.33955 -0.175061,0.61736 -0.375914,0.61736 -0.249942,0 -0.248275,-0.21846 0.0053,-0.69223 0.287846,-0.53785 0.546325,-0.62568 1.158939,-0.3938 0.477501,0.18074 0.744378,0.53728 0.676679,0.90402 -0.06604,0.35776 0.04224,0.5104 0.264584,0.37298 0.206991,-0.12793 0.376362,-0.49509 0.376362,-0.8159 0,-0.32081 0.425381,-0.92248 0.945295,-1.33704 l 0.945295,-0.75375 -0.799626,-0.847 c -0.656349,-0.69524 -0.770173,-1.13146 -0.635235,-2.4345 0.09042,-0.87313 0.279519,-1.86412 0.420224,-2.20221 0.238382,-0.57279 0.169897,-0.5788 -1.004287,-0.0882 -1.425093,0.59544 -4.105,0.70886 -4.105,0.17373 0,-0.19403 0.286674,-0.35278 0.637056,-0.35278 0.35038,0 1.636903,-0.33765 2.858937,-0.75034 1.930876,-0.65207 2.291101,-0.91601 2.750402,-2.01528 0.518223,-1.24028 0.508915,-1.28064 -0.477684,-2.07043 -1.205246,-0.96483 -2.818755,-1.32119 -4.418219,-0.97582 -1.342401,0.28987 -3.718975,1.41734 -4.579517,2.17256 -0.518525,0.45507 -0.762222,0.37516 -2.197804,-0.72065 -1.976186,-1.50845 -3.020999,-1.88487 -3.425354,-1.23404 -0.170852,0.27499 -0.152106,0.52877 0.04404,0.59632 0.187809,0.0647 0.341474,0.36343 0.341474,0.66391 0,0.91135 1.420545,2.91093 2.415307,3.39981 0.514845,0.25303 1.754317,0.44762 2.754387,0.43242 1.02368,-0.0155 1.730692,0.1142 1.617821,0.29691 -0.110265,0.17849 0.06369,0.22316 0.386559,0.0993 0.869005,-0.33346 0.735353,0.56104 -0.315111,2.10898 -1.074775,1.58377 -1.441908,1.96495 -0.958329,0.995 0.193471,-0.38805 0.456123,-1.14212 0.583674,-1.67569 0.223721,-0.93588 0.18184,-0.97014 -1.185921,-0.97014 -1.130136,0 -1.417833,0.12885 -1.417833,0.635 0,0.34925 -0.198438,0.85753 -0.440971,1.12951 -0.37769,0.42355 -0.34852,0.42428 0.203274,0.005 0.55113,-0.41872 0.690573,-0.41626 0.964737,0.017 0.176271,0.27857 0.322921,0.76731 0.325893,1.0861 0.003,0.31879 0.243525,0.671 0.534567,0.78268 0.291041,0.11169 0.529166,0.44617 0.529166,0.7433 0,0.64949 -0.574759,0.71867 -0.824695,0.0993 -0.117483,-0.29116 -0.187397,-0.25383 -0.205785,0.10987 -0.04191,0.82886 -1.372103,2.0985 -1.961589,1.87229 -0.284666,-0.10923 -0.771121,0.0549 -1.081006,0.36482 -0.309888,0.30989 -0.448114,0.56343 -0.307168,0.56343 0.140944,0 -0.03107,0.3175 -0.382257,0.70556 -0.351184,0.38806 -0.899665,0.70556 -1.218843,0.70556 -0.319177,0 -0.756933,0.1766 -0.972788,0.39246 -0.215855,0.21586 -0.589394,0.32682 -0.830085,0.24659 -0.240691,-0.0802 0.102605,-0.41197 0.762881,-0.73721 0.660276,-0.32523 0.960877,-0.59495 0.668002,-0.59937 -0.789771,-0.0119 -1.348373,-1.13447 -1.199746,-2.41099 0.123257,-1.0586 0.06388,-1.12514 -1.00867,-1.13022 -0.865576,-0.004 -1.012383,-0.0876 -0.610473,-0.34738 0.291042,-0.18808 0.901219,-0.3444 1.355944,-0.34737 0.530204,-0.003 0.893659,-0.26116 1.013227,-0.7184 0.1465,-0.5602 0.290613,-0.62654 0.672531,-0.30958 0.381331,0.31648 0.486077,0.27076 0.486077,-0.21215 0,-0.51522 0.08887,-0.5418 0.545221,-0.16306 0.299871,0.24887 0.461653,0.67026 0.359516,0.93643 -0.112755,0.29383 0.167129,0.61809 0.712467,0.82543 1.425583,0.542 1.805895,0.37773 0.890458,-0.38463 -0.464047,-0.38645 -0.747466,-0.7989 -0.629814,-0.91655 0.11765,-0.11765 -0.0186,-0.54588 -0.302802,-0.95162 -0.284192,-0.40574 -0.516713,-0.98566 -0.516713,-1.28871 0,-0.30305 -0.477917,-0.83331 -1.062037,-1.17836 l -1.062041,-0.62736 -0.613656,1.11578 c -1.16239,2.11351 -2.456541,3.69253 -3.533538,4.31134 l -1.079685,0.62036 -0.232162,-1.05703 c -0.12769,-0.58137 -0.638259,-1.37647 -1.134596,-1.76689 -1.371637,-1.07892 -1.734704,-0.8474 -0.491816,0.31363 0.650955,0.60809 1.086567,1.35979 1.07328,1.85209 l -0.02236,0.8286 -0.327168,-0.8157 c -0.540142,-1.34669 -1.272294,-1.87362 -2.259172,-1.62593 -0.556461,0.13966 -0.896715,0.0767 -0.896715,-0.16596 0,-0.21506 0.238125,-0.39102 0.529167,-0.39102 0.291042,0 0.529167,-0.23813 0.529167,-0.52917 0,-0.51607 0.399399,-0.67834 1.351293,-0.54899 1.071874,0.14566 2.282446,-1.25919 4.018547,-4.66346 1.647827,-3.23117 1.840665,-3.84504 1.850796,-5.89168 l 0.01131,-2.28468 1.5875,-0.74961 c 0.873125,-0.41229 2.500312,-0.84115 3.615973,-0.95303 1.984803,-0.19903 2.641025,0.10333 1.41111,0.65018 -0.489998,0.21786 -0.362635,0.33105 0.617363,0.54864 0.960649,0.21329 0.830487,0.23726 -0.586404,0.10798 l -1.821127,-0.16616 -0.383736,1.7893 c -0.547905,2.5548 -0.519898,2.67313 0.886547,3.74588 1.190048,0.9077 1.292924,0.92844 1.628717,0.32841 0.288007,-0.51464 0.416719,-0.54618 0.655077,-0.16051 0.246541,0.39891 0.46301,0.38417 1.281699,-0.0873 0.541782,-0.312 1.168948,-0.50057 1.393704,-0.41903 0.224753,0.0815 0.511931,-0.0189 0.63818,-0.22315 0.126246,-0.20427 0.525055,-0.3714 0.886243,-0.3714 0.43996,0 0.731943,-0.34256 0.884666,-1.0379 0.125381,-0.57085 0.693619,-1.68073 1.262756,-2.46639 1.187325,-1.63906 1.22928,-1.78738 0.505621,-1.78738 -0.291041,0 -0.529166,-0.11917 -0.529166,-0.26482 0,-0.14565 1.137853,-0.29922 2.528559,-0.34127 3.972705,-0.12013 5.891593,1.13209 5.445588,3.55365 -0.164608,0.89372 0.274881,2.10246 2.260755,6.21784 1.3558,2.80965 2.4651,5.45097 2.4651,5.86959 0,0.73791 -2.875833,4.01501 -3.523385,4.01501 -1.206947,0 -0.175453,0.90641 3.088925,2.71434 2.08233,1.15327 5.10945,3.07809 6.72692,4.27737 1.61747,1.19928 3.22,2.18051 3.56118,2.18051 0.96547,0 1.90471,1.25092 1.66284,2.21462 -0.16586,0.66083 0.11576,1.15047 1.3693,2.38072 0.86796,0.85184 1.5781,1.82561 1.5781,2.16395 0,1.09973 4.67203,3.92003 5.94317,3.58762 0.6721,-0.17576 0.75961,-0.0546 0.75961,1.05162 0,0.91138 -0.23759,1.43715 -0.87656,1.93976 l -0.87656,0.6895 2.82882,2.70264 c 1.55586,1.48645 2.78375,2.90987 2.72864,3.16315 -0.19816,0.91094 3.18851,3.0121 4.41203,2.7373 1.10798,-0.24883 1.90646,1.51641 1.20171,2.65672 -0.12956,0.20962 0.23838,0.97749 0.81763,1.70639 1.95351,2.45818 1.20124,4.1117 -2.00013,4.39631 -1.87263,0.16648 -2.07302,0.2643 -2.18233,1.06526 -0.16909,1.23903 -1.0907,2.17172 -1.89399,1.91677 -1.2629,-0.40083 -3.33192,0.1951 -3.81568,1.09901 -0.59769,1.1168 -1.59381,1.40411 -2.59461,0.74836 -0.93382,-0.61186 -1.30353,-0.4331 -1.89695,0.91725 -0.58847,1.33905 -1.98038,1.82236 -3.78952,1.31583 -1.62311,-0.45444 -2.80169,-0.14261 -3.84704,1.01785 -0.83265,0.92434 -2.09639,0.95948 -2.93019,0.0815 -0.81818,-0.86155 -2.08823,-0.42985 -2.58584,0.87895 -0.34105,0.89704 -0.44025,0.92911 -2.2252,0.71932 -1.63205,-0.19181 -2.01862,-0.10862 -3.05783,0.65808 -1.392784,1.02757 -3.368407,1.1576 -4.973877,0.32738 -0.99242,-0.5132 -1.147077,-0.50131 -2.295702,0.17639 -1.557904,0.91919 -3.017081,0.92722 -3.837099,0.0211 -0.351187,-0.38806 -0.946063,-0.70556 -1.321951,-0.70556 -0.375886,0 -1.087067,0.3175 -1.580398,0.70556 -1.336985,1.05167 -2.937944,0.91568 -4.153207,-0.35278 z m 3.708244,-0.41158 c 0.56861,-0.42039 1.515977,-0.76435 2.105255,-0.76435 0.613354,0 1.419254,0.32678 1.885026,0.76435 0.447487,0.4204 1.00992,0.76436 1.249852,0.76436 0.556628,0 1.515848,-2.26247 1.251397,-2.95162 -0.303694,-0.79142 -0.843899,-0.87405 -3.07287,-0.47003 -2.038425,0.36948 -2.044404,0.368 -3.074162,-0.75944 -0.771525,-0.84471 -1.234792,-1.08 -1.836698,-0.93282 -3.787077,0.92598 -4.298723,1.12418 -4.777566,1.85071 -0.504618,0.76563 -0.483952,0.79375 0.583396,0.79375 0.77484,0 1.501553,0.36727 2.424279,1.22518 1.552602,1.44354 1.891313,1.49337 3.262091,0.47991 z m 14.010772,-0.64676 c 0.58582,-0.4608 1.43114,-0.70555 2.43689,-0.70555 1.27052,0 1.53993,-0.11572 1.53993,-0.66146 0,-0.3638 0.0992,-1.15751 0.22046,-1.76379 l 0.22047,-1.10234 -1.52647,0.53858 c -1.48597,0.52428 -5.97002,2.89309 -5.97002,3.15381 0,1.34646 1.679446,1.64144 3.07874,0.54075 z m -21.97984,-1.12183 c 0.694217,-0.81103 1.262213,-1.67697 1.262213,-1.92429 0,-0.68019 -2.294241,-0.97023 -4.895433,-0.61888 -1.965214,0.26545 -2.389103,0.44908 -2.759752,1.19556 -0.343501,0.6918 -0.34508,0.91064 -0.0073,1.01504 0.236818,0.0732 0.748077,0.41019 1.136134,0.74885 0.89812,0.78381 1.491334,0.99585 2.882925,1.03048 0.894257,0.0222 1.372579,-0.26835 2.38125,-1.44676 z m 17.48999,0.66009 c 0,-0.25395 -0.238125,-0.76989 -0.529166,-1.14652 -0.513231,-0.66417 -0.544373,-0.66516 -1.034106,-0.0331 -0.277712,0.35841 -0.419481,0.87435 -0.315034,1.14653 0.239919,0.62521 1.878306,0.65411 1.878306,0.0331 z m -24.99495,-2.14836 c 1.0078,-1.18023 0.993536,-1.62323 -0.05227,-1.62323 -0.365154,0 -0.762029,-0.15875 -0.881946,-0.35278 -0.370086,-0.59881 -1.226907,-0.39266 -2.1327,0.51314 -0.919239,0.91923 -1.161026,2.49352 -0.424937,2.76676 0.952508,0.35359 2.602709,-0.26262 3.491855,-1.30389 z m 40.51494,0.14483 c 0.20646,-0.38577 0.76767,-0.79985 1.24713,-0.92019 1.04353,-0.26191 1.04997,-0.3051 0.22362,-1.49897 -0.35648,-0.51502 -0.75224,-1.22427 -0.87945,-1.57612 -0.24986,-0.69102 -0.94185,-0.49663 -0.94185,0.26457 0,0.93397 -2.65541,2.29779 -4.49791,2.31012 -0.61881,0.004 -0.79375,0.20801 -0.79375,0.925 0,0.74129 0.11975,0.86847 0.61736,0.65566 1.37946,-0.58995 2.54738,-0.60147 2.76771,-0.0273 0.30728,0.80077 1.80467,0.71267 2.25714,-0.13277 z m -12.965885,-0.19417 c 0.42381,-0.16264 0.425156,-0.53032 0.0093,-2.55224 -0.267179,-1.29922 -0.412499,-2.64247 -0.322927,-2.98499 0.145209,-0.55527 -0.130942,-0.62277 -2.547937,-0.62277 -2.274234,0 -2.808081,-0.11363 -3.314907,-0.70555 -0.707845,-0.82671 -1.917096,-0.89598 -2.88331,-0.16518 -0.88102,0.66637 -3.04107,0.66637 -3.92209,0 -0.827501,-0.62588 -2.126933,-0.67733 -3.654857,-0.14469 -1.023146,0.35667 -1.23027,0.30449 -2.100418,-0.52917 -1.175546,-1.12624 -1.571104,-1.15305 -2.236068,-0.15156 -0.422039,0.63562 -0.932537,0.79997 -2.867601,0.92319 -1.556054,0.0991 -2.532753,0.002 -2.880971,-0.28732 -0.457933,-0.38006 -0.526812,-0.14099 -0.526812,1.82848 0,1.29183 0.181962,2.44765 0.423334,2.68902 0.658145,0.65815 3.784792,0.54673 4.049973,-0.14432 0.119803,-0.3122 0.591918,-0.9713 1.049142,-1.46465 0.457221,-0.49335 1.014346,-1.50791 1.238051,-2.25457 0.522071,-1.74252 1.106908,-1.76807 0.79306,-0.0346 -0.307414,1.6979 -1.038686,3.13586 -1.815926,3.57083 -0.540631,0.30255 -0.509632,0.3641 0.264576,0.52529 0.482327,0.10043 1.353209,0.28293 1.935292,0.40556 2.90586,0.61219 3.283365,0.60626 3.633541,-0.057 0.189421,-0.35878 0.535705,-1.58211 0.76952,-2.71851 0.263244,-1.27944 0.550524,-1.94078 0.754462,-1.73685 0.434057,0.43406 0.529838,2.13721 0.191659,3.40798 -0.246232,0.92525 -0.201023,0.99791 0.505859,0.81306 1.334527,-0.34899 2.738636,0.11553 2.856947,0.94516 0.08441,0.59189 0.390843,0.77697 1.428671,0.86289 0.787913,0.0652 1.638384,-0.11276 2.106969,-0.44097 1.247955,-0.8741 3.688797,-0.70982 4.926428,0.33158 1.100516,0.92602 1.331815,1.00092 2.136992,0.69194 z m -9.014468,-1.66208 c 0.845114,-0.93404 1.521473,-2.79088 1.521473,-4.17697 0,-0.54167 0.177861,-1.09479 0.395251,-1.22914 0.282294,-0.17447 0.355028,0.46745 0.254513,2.24632 -0.152011,2.69022 -0.847667,3.95354 -2.177044,3.95354 h -0.712375 z m -22.373006,-0.42577 c 0.627173,-0.62509 1.378439,-1.21969 1.669481,-1.32132 1.12169,-0.39171 -0.167497,-0.81165 -2.565945,-0.83585 -1.394042,-0.0141 -2.561521,-0.18765 -2.629284,-0.39094 -0.415165,-1.2455 -1.142227,-1.65826 -3.124806,-1.774 -1.133602,-0.0662 -2.406565,-0.34669 -2.828808,-0.62335 -0.686316,-0.4497 -0.83461,-0.42911 -1.398641,0.19413 -0.611978,0.67623 -0.592145,0.73688 0.660392,2.01959 1.459551,1.49472 3.420425,2.44329 3.420425,1.65462 0,-0.55537 1.687137,-2.64225 2.136127,-2.64225 0.170238,0 0.01598,0.51594 -0.342797,1.14653 -0.849699,1.49344 -1.183553,2.98597 -0.730538,3.26595 0.197905,0.12231 0.288803,0.3373 0.201996,0.47776 -0.08681,0.14046 0.865899,0.19019 2.117127,0.11052 1.995059,-0.12703 2.415257,-0.28469 3.415271,-1.28139 z m 50.686959,0.90155 c 0.23981,-0.44809 0.24278,-1.00435 0.009,-1.6757 -0.339,-0.9733 -0.42637,-1.00494 -2.77439,-1.00494 h -2.42437 l 1.07139,1.3545 c 1.56745,1.98166 3.44419,2.58597 4.11843,1.32614 z m -13.21053,-1.3128 c 4.08094,-0.23146 4.45808,-0.34646 4.22233,-1.28756 -0.27047,-1.07971 0.52133,-2.03367 1.92651,-2.32106 l 1.1755,-0.24042 -1.99493,-1.70431 c -2.11799,-1.80946 -2.81844,-1.90165 -3.37267,-0.44391 -0.45755,1.20343 -0.8538,1.35125 -2.00822,0.74916 -1.2733,-0.66408 -2.6334,-0.67002 -4.19319,-0.0183 -1.164909,0.48674 -1.22339,0.59555 -1.22339,2.27646 0,0.97091 0.189947,2.18218 0.4221,2.69171 0.34845,0.76476 0.57929,0.88557 1.32292,0.69236 0.49545,-0.12873 2.17081,-0.30608 3.72304,-0.39412 z m 15.59437,-1.00171 c -0.0397,-0.007 -0.48842,-0.37915 -0.9972,-0.82625 -0.73986,-0.65014 -0.96406,-0.71122 -1.11992,-0.30508 -0.10717,0.27929 0.0382,0.84056 0.32307,1.24725 0.43379,0.61932 0.62744,0.67105 1.19206,0.31844 0.37078,-0.23156 0.64167,-0.42701 0.60199,-0.43436 z m 3.34562,-0.52865 c 0.76705,-0.71462 3.48355,-1.31818 4.13123,-0.91789 0.20473,0.12652 0.61202,-0.35915 0.92067,-1.09787 0.63406,-1.51751 1.05736,-1.86569 2.27745,-1.87327 0.80333,-0.005 0.82571,-0.049 0.29471,-0.58004 -0.531,-0.531 -0.65474,-0.5176 -1.62936,0.17639 -0.5801,0.41307 -1.46918,0.75103 -1.97575,0.75103 -0.50656,0 -1.82148,0.50819 -2.92205,1.1293 -1.62334,0.91617 -2.36253,1.12085 -3.91639,1.08447 -1.77519,-0.0416 -1.8615,-0.007 -1.17926,0.47075 0.6095,0.42692 2.78411,1.48548 3.15337,1.53501 0.0566,0.008 0.43704,-0.29745 0.84538,-0.67788 z m -53.223446,-2.82099 c 0.103454,-0.88143 0.296582,-1.95529 0.42917,-2.38636 0.33869,-1.10115 -1.117695,-1.75535 -2.905183,-1.30498 -1.088848,0.27434 -1.45786,0.64233 -2.373263,2.36675 -0.977802,1.84196 -1.028136,2.08376 -0.514059,2.46944 0.313434,0.23515 1.606085,0.43434 2.872555,0.44265 l 2.302677,0.0151 0.188103,-1.60261 z m 46.951016,0.51406 c 0.35895,-0.54783 0.9089,-0.88194 1.45168,-0.88194 0.78426,0 0.87381,-0.14462 0.87381,-1.41111 0,-1.55065 -1.09973,-3.06644 -1.86495,-2.57051 -0.23546,0.1526 -1.5015,0.28917 -2.81342,0.30349 -1.93845,0.0212 -2.51303,0.16312 -3.06702,0.75776 -0.37493,0.40244 -0.88904,0.8087 -1.14246,0.9028 -0.68494,0.25432 0.56848,1.42609 2.89063,2.70232 2.36753,1.30117 2.92863,1.3313 3.67173,0.19719 z m -60.468954,-3.05823 c 0,-0.77214 -0.202655,-1.03613 -0.936832,-1.2204 -1.52473,-0.38268 -2.40997,1.40455 -1.519668,3.06809 0.358169,0.66925 0.387302,0.6674 1.41111,-0.0895 0.724643,-0.53575 1.04539,-1.07519 1.04539,-1.75816 z m 38.990459,-0.43454 c -0.2598,-2.65624 -0.765649,-3.37218 -2.897331,-4.10072 -0.879824,-0.3007 -1.341009,-0.27282 -2.116666,0.12793 -0.934837,0.48299 -0.984806,0.62584 -0.870895,2.48967 0.118986,1.94686 0.137554,1.97728 1.206945,1.97728 1.134096,0 2.376379,0.84536 2.376379,1.6171 0,0.29248 0.443402,0.42737 1.269836,0.38629 l 1.269838,-0.0631 z m -31.77328,1.59902 c 0.115041,-0.36247 0.522616,-0.9427 0.905717,-1.2894 0.94865,-0.85851 0.878435,-1.13056 -0.362117,-1.40303 -1.05461,-0.23163 -1.258692,-0.5944 -1.488405,-2.64576 -0.07284,-0.65048 -0.330227,-0.90457 -0.980708,-0.96815 -0.769723,-0.0752 -1.027829,0.21979 -2.02847,2.31864 -1.092107,2.2907 -1.424273,3.89861 -0.911344,4.41154 0.129352,0.12936 1.229905,0.23519 2.445673,0.23519 1.848636,0 2.244725,-0.10788 2.419654,-0.65903 z m 61.609825,-0.75208 c 0.25057,0 -0.25019,-0.45566 -1.1128,-1.01257 -0.8626,-0.55691 -2.09198,-1.53575 -2.73195,-2.1752 -1.06508,-1.06421 -1.21122,-1.115 -1.72624,-0.59999 -0.51502,0.51502 -0.40905,0.735 1.25177,2.59841 0.99795,1.11966 1.81444,2.17362 1.81444,2.34212 0,0.16851 0.46107,-0.0219 1.0246,-0.4232 0.56352,-0.40126 1.22961,-0.72957 1.48018,-0.72957 z m -37.943908,-1.56908 c 0.700969,-1.67766 0.648753,-2.31148 -0.190412,-2.31148 -0.387496,0 -1.348627,-0.58189 -2.135847,-1.2931 l -1.431308,-1.2931 -1.303737,0.74464 c -1.054709,0.60241 -1.36456,1.03471 -1.622169,2.26324 -0.368157,1.75573 -0.428627,3.71135 -0.124176,4.01581 0.115646,0.11564 1.114829,0.0225 2.220409,-0.20704 1.727428,-0.35861 2.087605,-0.33985 2.560894,0.13345 0.49915,0.49914 0.595792,0.48644 1.031484,-0.1356 0.264403,-0.37749 0.712091,-1.24006 0.994862,-1.91682 z m -11.303777,0.86352 c 0.370088,-1.1102 0.556162,-1.24548 1.845114,-1.34142 1.130255,-0.0841 1.477491,-0.27071 1.64139,-0.88195 0.367086,-1.36898 0.249806,-1.51815 -1.669092,-2.12303 -2.071928,-0.65312 -2.838355,-1.32562 -3.188014,-2.79735 -0.306403,-1.28965 -0.881581,-1.22304 -2.284751,0.26459 -0.64054,0.67909 -1.394947,1.23472 -1.676456,1.23472 -1.082915,0 -2.983804,-1.06326 -3.283127,-1.83641 -0.292177,-0.75469 -0.364778,-0.69545 -1.073491,0.87581 -0.461433,1.02302 -0.717323,2.20132 -0.651201,2.99861 l 0.108921,1.31338 2.528835,0.22596 c 1.390862,0.12428 2.680721,0.31983 2.866356,0.43456 0.185634,0.11473 0.440925,-0.43809 0.567314,-1.22847 0.287282,-1.79657 1.408197,-4.03694 2.165104,-4.32739 0.470061,-0.18038 0.44061,-0.006 -0.164005,0.97254 -0.431268,0.69781 -0.906775,2.39331 -1.146381,4.08763 -0.465762,3.29349 -0.298567,3.61505 1.796499,3.45502 1.031814,-0.0788 1.264657,-0.26987 1.616985,-1.3268 z m 56.998815,-0.50217 c -0.67934,-0.72313 -0.92058,-0.79647 -1.47699,-0.44898 -0.93943,0.58668 -0.83229,0.91421 0.4815,1.47189 1.53191,0.65027 2.05877,0.10889 0.99549,-1.02291 z m -34.140525,-0.0188 c 1.646065,-0.49944 3.305785,-0.41581 4.570035,0.23028 0.85057,0.43468 0.7915,-0.0947 -0.23707,-2.12447 -1.09571,-2.16228 -1.71001,-2.68653 -2.59376,-2.21356 -0.36909,0.19753 -0.97456,0.28767 -1.34547,0.20031 -0.675693,-0.15915 -2.967453,1.60462 -2.967453,2.28378 0,0.39234 0.643196,2.14637 0.785018,2.14079 0.05331,-0.002 0.858224,-0.23482 1.7887,-0.51714 z m 30.605995,-0.7627 c 0.19465,-0.51198 0.30979,-0.96241 0.25585,-1.00096 -0.0539,-0.0386 -0.78863,-0.33911 -1.63266,-0.6679 -0.84404,-0.32879 -2.09956,-0.9817 -2.79006,-1.4509 -1.32423,-0.89984 -1.89405,-0.82247 -3.35888,0.45608 -0.58961,0.51464 -0.52495,0.61281 1.05834,1.60677 2.01571,1.26543 3.80102,1.9512 5.13462,1.9723 0.74056,0.0117 1.06504,-0.21115 1.33279,-0.91539 z m -19.9794,0.0112 c 0.30691,-0.11778 0.55802,-0.42969 0.55802,-0.69315 0,-0.26345 0.31587,-0.64805 0.70193,-0.85467 0.69491,-0.37191 0.69403,-0.38802 -0.0882,-1.61044 -0.6334,-0.98984 -1.00006,-1.22559 -1.84846,-1.1885 -2.23981,0.0979 -2.94232,-0.0538 -4.19977,-0.90717 -1.65279,-1.12161 -2.25666,-1.1119 -2.69588,0.0433 -0.31573,0.83044 -0.17924,1.11067 1.33165,2.73403 1.45552,1.56387 1.83873,1.79307 2.83044,1.69292 0.79673,-0.0805 1.21223,0.0542 1.36065,0.44097 0.22048,0.57456 1.07363,0.71719 2.04961,0.34267 z m -50.157087,-2.84236 c 0.294688,-0.1857 0.08793,-0.34319 -0.614061,-0.46775 -0.973156,-0.17267 -1.061394,-0.30883 -1.096378,-1.69182 -0.02093,-0.82722 -0.137165,-1.60315 -0.258312,-1.7243 -0.402331,-0.40233 -1.628299,2.85956 -1.636173,4.3533 -0.0068,1.29104 0.110305,1.51026 0.96239,1.80153 0.879502,0.30065 1.027512,0.22313 1.584201,-0.82968 0.337735,-0.63873 0.813985,-1.2873 1.058333,-1.44128 z m 56.675607,0.49883 c -0.22788,-0.43656 -1.10659,-1.72229 -1.9527,-2.85718 -2.0597,-2.76271 -1.97373,-3.6207 0.10393,-1.0371 0.90325,1.12321 1.69724,2.10858 1.76442,2.18972 0.0672,0.0811 0.49985,-0.0546 0.96151,-0.3017 0.48681,-0.26053 1.17561,-0.3425 1.63988,-0.19515 l 0.80049,0.25407 -0.72161,-1.01071 c -0.39688,-0.55588 -1.36628,-1.60601 -2.1542,-2.33362 -1.24672,-1.15126 -1.65538,-1.32291 -3.14959,-1.32291 h -1.71699 l -0.41293,2.20486 c -0.41086,2.19386 -0.40815,2.20837 0.54351,2.90745 1.3534,0.99419 3.71892,2.26187 4.25522,2.28038 0.35795,0.0124 0.36617,-0.15144 0.0391,-0.77811 z m -19.887074,-0.53457 c 0.198509,-0.14255 0.650417,-0.71358 1.004242,-1.26895 0.580271,-0.91082 0.778256,-0.9882 2.020324,-0.78958 1.195148,0.19111 1.377008,0.13162 1.377008,-0.45045 0,-0.36886 0.29456,-1.03441 0.65458,-1.47901 0.64729,-0.79938 0.6414,-0.82564 -0.52917,-2.35916 -1.48414,-1.94433 -1.633239,-3.26115 -0.16798,-1.48354 0.55868,0.67777 2.16549,1.86253 3.5707,2.63281 1.40521,0.77029 2.63198,1.6013 2.72614,1.84669 0.16679,0.43465 1.85962,0.65192 1.85962,0.23868 0,-0.11413 -0.96378,-1.26506 -2.14174,-2.55764 -1.17796,-1.29258 -2.48357,-2.93224 -2.90137,-3.6437 -0.59842,-1.01903 -1.0236,-1.327 -2.0034,-1.45112 -1.01617,-0.12873 -1.42896,0.0273 -2.25577,0.85259 -1.004559,1.00272 -2.450345,1.33405 -2.868556,0.65737 -0.275487,-0.44575 -2.041631,-0.46157 -2.487084,-0.0222 -0.184324,0.18178 -1.049512,0.38021 -1.922637,0.44097 l -1.5875,0.11047 -0.314129,2.91966 c -0.172773,1.60582 -0.232973,3.00082 -0.133784,3.10001 0.09919,0.0992 0.591235,-0.007 1.093428,-0.23568 0.744133,-0.33904 1.071552,-0.31219 1.76952,0.14514 l 0.856438,0.56116 -0.438103,-1.48126 c -0.587899,-1.98771 -0.892085,-4.47988 -0.546803,-4.47988 0.153537,0 0.381952,0.68552 0.507597,1.52337 0.125643,0.83785 0.699294,2.51898 1.274779,3.73584 1.217792,2.57502 1.232429,2.6488 0.46727,2.35518 -0.48418,-0.1858 -0.506003,-0.13417 -0.133194,0.31504 0.496811,0.59861 0.721275,0.64662 1.249574,0.26725 z m 35.240774,0.0559 c 0.83589,-0.32076 0.67211,-0.84421 -0.26413,-0.84421 -0.45219,0 -1.5249,-0.35718 -2.38379,-0.79375 -1.4744,-0.74941 -1.59526,-0.75998 -2.16359,-0.18925 -0.69461,0.69753 -0.51095,0.87136 1.62798,1.54079 1.66668,0.52164 2.39889,0.58751 3.18353,0.28642 z M 45.7006,64.928265 c 0.436626,-0.34261 0.59526,-1.32624 0.711163,-4.40972 0.08205,-2.18282 0.04859,-3.96875 -0.07435,-3.96875 -0.122944,0 -0.531688,0.23307 -0.908322,0.51794 -0.376632,0.28487 -1.024991,0.523 -1.440794,0.52917 -0.98584,0.0146 -1.18427,0.61512 -1.18427,3.58388 0,2.1379 0.112345,2.56898 0.86591,3.32254 0.986703,0.9867 1.245672,1.0409 2.030664,0.42494 z m -7.768563,-2.28663 c 0.141194,-1.69772 1.527526,-2.34752 3.092349,-1.44943 l 0.985237,0.56545 0.236281,-2.30624 c 0.137361,-1.3407 0.0949,-2.44762 -0.101415,-2.64394 -0.215077,-0.21508 -0.913966,-0.0499 -1.924751,0.45491 -1.623319,0.81073 -2.285164,0.80413 -4.36961,-0.0435 -0.623186,-0.25343 -1.257564,-0.33629 -1.409731,-0.18412 -0.356267,0.35627 -0.362175,4.68723 -0.0081,5.95327 0.24361,0.87111 0.430487,0.97014 1.830787,0.97014 1.545971,0 1.560433,-0.0114 1.668973,-1.31649 z m -15.324134,-0.44263 c 1.075346,-1.07534 1.302782,-1.49226 0.966359,-1.77147 -0.301085,-0.24988 -0.739172,-0.25139 -1.387793,-0.005 -1.43316,0.54489 -2.47329,0.43693 -3.489166,-0.36216 l -0.918541,-0.72253 -0.214913,0.85629 c -0.118202,0.47096 -0.162832,1.31203 -0.09918,1.86905 0.106413,0.93114 0.257918,1.02963 1.879629,1.22193 0.97014,0.11504 1.7849,0.2341 1.810581,0.26458 0.02566,0.0305 0.67954,-0.57742 1.45302,-1.3509 z m 5.870879,-0.21002 c 0.117772,-0.30691 0.214133,-0.85888 0.214133,-1.22659 0,-0.97121 1.43611,-1.79109 2.69595,-1.53912 0.962808,0.19256 1.079513,0.10543 1.442365,-1.07684 0.505158,-1.64596 -0.194567,-2.03688 -1.680053,-0.93861 -1.38788,1.0261 -1.703726,0.95646 -2.316792,-0.51081 -0.449466,-1.07573 -0.608436,-1.19719 -1.067851,-0.81591 -1.183663,0.98235 -2.807644,5.06254 -2.322136,5.83427 0.526637,0.8371 2.741512,1.03682 3.034384,0.27361 z m 50.013341,-1.79364 c -1.5572,-1.74134 -2.2169,-2.23411 -2.99115,-2.23426 -0.54633,-10e-5 -1.29373,-0.16096 -1.66088,-0.35746 -0.52388,-0.28037 -0.74395,-0.2145 -1.02254,0.30603 -0.30517,0.57023 0.002,0.93201 2.19006,2.57882 2.11447,1.59148 2.79349,1.91769 4.01367,1.92824 l 1.46865,0.0127 z m 2.4119,-1.51935 c -1.26118,-1.15254 -2.38177,-2.10243 -2.49021,-2.11087 -0.10844,-0.008 -0.50531,0.22276 -0.88194,0.51378 -0.66645,0.51496 -0.65739,0.55039 0.33834,1.32292 1.57707,1.22356 3.82789,2.38192 4.61585,2.37549 0.53829,-0.004 0.15395,-0.51488 -1.58204,-2.10132 z m -63.997841,-0.18515 c 0.488199,-1.94514 -0.773231,-2.60243 -1.429646,-0.74494 -0.260591,0.73741 -0.219398,1.03836 0.176389,1.28869 0.796515,0.50379 1.014029,0.40942 1.253257,-0.54375 z m 4.397341,-0.0236 c 0.314142,-0.37851 0.939803,-0.52237 1.990847,-0.45773 1.373505,0.0845 1.638059,-0.0335 2.546527,-1.13565 0.88555,-1.07432 0.954011,-1.31165 0.541216,-1.87618 -0.358833,-0.49073 -0.753198,-0.59647 -1.638525,-0.43933 -3.516942,0.62425 -3.811786,0.64483 -3.811786,0.26613 0,-0.85573 -0.621721,-0.30882 -1.383969,1.21744 -0.768509,1.53879 -0.776526,1.63859 -0.184246,2.29305 0.749494,0.82818 1.32955,0.86773 1.939936,0.13226 z m 45.43085,-0.19092 c 0.41522,-0.66487 0.66919,-0.71728 2.41742,-0.49885 2.50809,0.31337 2.40991,-0.0544 -0.71752,-2.68811 -3.08718,-2.59976 -4.84878,-2.97923 -6.53183,-1.40702 l -1.11408,1.04071 0.96687,1.14906 c 0.85253,1.01318 3.77928,3.14712 4.31633,3.14712 0.10937,0 0.40764,-0.33431 0.66281,-0.74291 z m -21.81368,-3.10484 c 0,-0.32849 0.1905,-0.78776 0.423333,-1.02059 0.329258,-0.32926 0.318331,-0.42334 -0.04918,-0.42334 -0.259881,0 -1.23793,-0.47096 -2.173438,-1.04659 l -1.70093,-1.04659 -0.229433,1.22298 c -0.206925,1.10299 -0.344022,1.22298 -1.397405,1.22298 -0.935529,0 -1.425982,-0.29838 -2.46444,-1.4993 l -1.296466,-1.49931 -0.537941,0.79375 c -0.708279,1.04509 -2.02706,1.01453 -3.113748,-0.0722 l -0.865909,-0.86591 v 1.37211 c 0,2.64915 1.079202,4.10084 1.745595,2.3481 0.62112,-1.63367 2.204326,-1.69593 3.799901,-0.14944 1.117547,1.08317 1.219909,1.11233 2.309852,0.65815 1.570233,-0.65432 2.535526,-0.58303 3.616272,0.26708 1.011473,0.79563 1.933935,0.67069 1.933935,-0.26192 z m 31.37382,0.0109 c 0.32008,-0.59808 0.14292,-0.70299 -1.83968,-1.08937 -2.16308,-0.42157 -5.9681,-2.1648 -5.24864,-2.40462 0.2034,-0.0678 0.72849,0.0687 1.16686,0.30329 2.38267,1.27516 8.76708,1.93211 8.76708,0.90212 0,-0.30592 -0.80243,-0.64772 -2.20486,-0.93916 -1.21267,-0.252 -2.78023,-0.65649 -3.48346,-0.89886 -1.08699,-0.37464 -1.36056,-0.35872 -1.82545,0.10617 -0.49394,0.49394 -0.68334,0.49223 -1.95777,-0.0177 l -1.41091,-0.56454 -0.71403,1.21019 -0.71402,1.21018 0.95178,0.6691 c 1.82777,1.28491 3.22951,1.83953 4.09818,1.62151 0.47269,-0.11864 1.14875,-0.0475 1.50235,0.15817 1.03806,0.60367 2.51941,0.46814 2.91257,-0.26648 z m -26.017817,-0.57291 c 1.27485,-1.07272 1.660136,-1.08955 3.265011,-0.14265 1.199782,0.70789 1.261803,0.71163 1.459976,0.0882 0.556832,-1.75177 0.903928,-2.2374 1.75108,-2.45003 0.50598,-0.12699 1.31259,-0.052 1.79248,0.16666 1.39637,0.63623 1.85524,0.47644 2.4041,-0.83717 0.4172,-0.99849 0.70681,-1.23471 1.51374,-1.23471 0.54881,0 1.36093,0.25431 1.80471,0.56515 1.18485,0.8299 1.22346,0.45032 0.0893,-0.87848 -0.98331,-1.15212 -1.0081,-1.15929 -2.08439,-0.60272 -1.24765,0.64519 -2.44487,0.71435 -3.75347,0.21682 -0.73464,-0.27931 -1.01979,-0.21818 -1.47139,0.31546 -2.732222,3.22859 -3.379875,3.45565 -5.586116,1.95846 -1.503386,-1.02023 -2.329818,-0.91151 -3.031045,0.39875 -0.26592,0.49687 -0.77846,1.06127 -1.138981,1.25422 -0.617059,0.33023 -0.601298,0.40103 0.268795,1.2074 1.15475,1.07019 1.417101,1.06774 2.71616,-0.0253 z m -30.563581,-0.33674 c 0.997186,-0.99718 1.121733,-2.35564 0.292045,-3.18533 -0.529971,-0.52997 -0.640773,-0.51166 -1.448541,0.23938 -1.332579,1.239 -1.65571,2.36694 -0.897964,3.13449 0.835271,0.84609 1.038484,0.82744 2.05446,-0.18854 z m 9.074333,-1.25075 c 0.332263,-0.38806 0.810998,-0.70556 1.063855,-0.70556 0.531021,0 1.400072,-2.86158 0.994529,-3.27476 -0.479774,-0.4888 -1.435616,0.14476 -1.994151,1.3218 -0.777439,1.63832 -1.928911,2.18209 -3.362926,1.5881 -0.617601,-0.25581 -1.569572,-0.84096 -2.115489,-1.30032 l -0.992577,-0.8352 -0.240276,1.28079 c -0.371893,1.98236 0.335354,2.48991 2.64481,1.89801 1.612005,-0.41314 1.869162,-0.39869 2.402874,0.13502 0.756954,0.75695 0.865103,0.74966 1.599351,-0.10788 z m 41.500325,-3.96875 c -0.87523,-1.69228 -1.21547,-1.85822 -3.54457,-1.72873 -2.09038,0.11621 -2.16844,0.15118 -1.34911,0.6043 0.51211,0.28322 1.33812,0.39821 2.00909,0.27969 0.92792,-0.1639 1.2881,-0.0317 1.94028,0.71224 0.98821,1.12722 1.49559,1.19841 0.94431,0.1325 z m -48.008311,-0.88713 c 0.137245,-0.96212 -0.660421,-1.34517 -1.67287,-0.80332 -0.89386,0.47838 -0.956733,1.31436 -0.11576,1.53914 1.11502,0.29804 1.673955,0.0681 1.78863,-0.73582 z m 49.431031,-1.22954 c -0.73785,-0.59748 -2.09536,-0.85122 -2.09536,-0.39167 0,0.44877 1.09079,1.00903 1.96452,1.00903 h 0.89325 z m -38.996455,-2.49861 c 0.654603,-1.92581 0.669216,-3.23938 0.03097,-2.78377 -0.196694,0.14042 -1.021729,1.06104 -1.833413,2.04585 l -1.475785,1.79054 0.951468,0.37679 c 1.541862,0.61058 1.657496,0.53954 2.326761,-1.42941 z m 2.577415,-5.04161 c -0.03968,-0.0387 -0.523309,0.0163 -1.074727,0.12217 -0.66239,0.12723 -0.852652,0.28522 -0.560732,0.46564 0.355121,0.21948 1.895449,-0.33414 1.635459,-0.58781 z m -0.116645,-6.67748 c -0.3112,-0.47495 -0.745998,-0.86112 -0.966216,-0.85815 -0.22022,0.003 -0.166872,0.15309 0.11855,0.3336 0.285422,0.18051 0.40832,0.43882 0.273108,0.57403 -0.135213,0.13522 -0.462722,0.0659 -0.727797,-0.15414 -0.265076,-0.22 -0.592683,-0.28926 -0.728015,-0.15393 -0.277124,0.27712 1.930297,1.4643 2.335528,1.25608 0.143364,-0.0737 0.006,-0.52254 -0.305158,-0.99749 z m 0.573662,-1.38164 c 0,-0.31471 -0.206939,-0.43869 -0.52714,-0.31582 -0.289928,0.11126 -0.439309,0.3444 -0.331959,0.5181 0.30784,0.49809 0.859099,0.3683 0.859099,-0.20228 z m 19.643764,-0.95917 c -0.112614,-0.28142 -0.196209,-0.19783 -0.213135,0.21314 -0.01532,0.37189 0.06806,0.58025 0.185285,0.46302 0.117227,-0.11722 0.129757,-0.42149 0.02784,-0.67616 z m -3.400221,-1.91557 c 0.23944,-0.62978 0.58705,-0.84048 1.386615,-0.84048 0.649883,0 1.067065,-0.18248 1.067065,-0.46674 0,-0.76672 -3.227218,-5.57187 -3.647969,-5.43162 -0.357659,0.11922 -2.640002,5.92121 -2.683161,6.82092 -0.01037,0.21637 0.311462,0.81335 0.715211,1.32663 l 0.734076,0.93323 1.054306,-0.75073 c 0.579872,-0.4129 1.198102,-1.12895 1.373857,-1.59121 z m 5.34479,0.68102 c 0.5442,-0.52137 0.98944,-1.13202 0.98944,-1.357 0,-0.68091 -5.271973,-11.45339 -5.605205,-11.45339 -0.17045,0 -0.88039,0.63145 -1.577639,1.40322 -1.250587,1.38425 -1.375497,2.23129 -0.385082,2.61135 0.270274,0.10372 1.615186,1.70349 2.988696,3.55506 1.373508,1.85156 2.68791,3.37269 2.9209,3.38029 0.23299,0.008 -0.0991,0.24092 -0.73804,0.51849 -1.143995,0.49702 -1.15276,0.51826 -0.576786,1.39731 0.725667,1.10751 0.771305,1.10623 1.983716,-0.0553 z m -2.185556,0.44755 c 0,-0.30619 -2.515664,-1.68765 -2.713316,-1.49 -0.113718,0.11372 0.196713,0.36016 0.689843,0.54765 0.493131,0.18749 1.000768,0.50943 1.12808,0.71543 0.22266,0.36027 0.895393,0.53076 0.895393,0.22692 z m -25.11795,-1.46533 c 1.104722,-0.77378 2.996889,-4.62769 2.7517,-5.60459 -0.107641,-0.42888 -0.05503,-1.27031 0.116919,-1.86984 0.628433,-2.19123 -0.06951,-1.33872 -1.980384,2.41897 -1.075732,2.1154 -2.056932,3.84861 -2.180442,3.85158 -0.12351,0.003 -0.452482,0.14963 -0.731046,0.32589 -0.419751,0.26561 -0.427456,0.41572 -0.045,0.87655 0.581737,0.70094 1.069086,0.70129 2.068254,0.001 z m 22.167671,-13.02662 c 1.099338,-0.52167 1.199772,-0.66769 0.761029,-1.10643 -0.277995,-0.278 -1.063834,-0.59606 -1.746306,-0.70681 -1.17044,-0.18994 -1.304194,-0.10575 -2.356818,1.48342 -1.920391,2.89926 -1.240211,4.60103 0.894551,2.2381 0.649586,-0.71902 1.750983,-1.57774 2.447544,-1.90828 z M 36.24237,14.004745 c 0.22529,-0.58709 0.171315,-0.59518 -1.000101,-0.14981 -0.761897,0.28968 -0.904909,0.56567 -0.904909,1.74636 0,0.96793 0.191235,1.50999 0.61736,1.74993 0.537173,0.30246 0.648584,0.13977 0.85775,-1.25251 0.132215,-0.88006 0.32567,-1.82234 0.4299,-2.09397 z m 0.07161,28.8455 c -0.09993,-0.16169 0.04945,-0.29398 0.331956,-0.29398 0.282509,0 0.513649,0.13229 0.513649,0.29398 0,0.16169 -0.149381,0.29398 -0.331957,0.29398 -0.182578,0 -0.413718,-0.13229 -0.513648,-0.29398 z m 1.489194,-0.88348 c -0.546338,-0.41541 -0.537578,-0.48291 0.115596,-0.89083 0.673161,-0.42039 0.678548,-0.48437 0.113427,-1.34685 -0.467535,-0.71355 -0.512337,-1.08321 -0.211355,-1.74379 0.210074,-0.46106 0.610495,-0.83829 0.889829,-0.83829 0.279331,0 0.758983,-0.0964 1.065895,-0.21413 0.312224,-0.11982 0.558019,-0.0329 0.558019,0.1972 0,0.22624 -0.14778,0.32001 -0.328401,0.20838 -0.574569,-0.3551 -0.744421,0.41569 -0.192529,0.87372 0.376542,0.3125 0.423802,0.56707 0.163499,0.88071 -0.262689,0.31652 -0.214082,0.49951 0.17204,0.64768 0.958107,0.36766 0.573032,0.89763 -0.950243,1.30781 l -1.488411,0.40079 0.871051,0.48225 c 0.501674,0.27775 0.646652,0.4828 0.341884,0.48353 -0.291042,8e-4 -0.795176,-0.20097 -1.120301,-0.44818 z m 2.531411,-1.8623 c 0,-0.0744 -0.406244,-0.13524 -0.902763,-0.13524 -0.49652,0 -0.813861,0.14385 -0.705205,0.31966 0.18074,0.29244 1.607968,0.12876 1.607968,-0.18442 z m -1.642157,-1.38518 c -0.114895,-0.29941 -0.284559,-0.46872 -0.377031,-0.37625 -0.09247,0.0925 -0.06349,0.33745 0.0644,0.54439 0.347859,0.56284 0.551175,0.4535 0.312631,-0.16814 z m -1.797431,1.72186 c -0.257561,-0.10393 -0.440971,-0.81376 -0.440971,-1.70664 0,-0.84079 -0.162718,-1.6094 -0.361598,-1.70804 -0.198879,-0.0986 -0.159191,-0.13862 0.08819,-0.0889 0.247385,0.0497 0.534733,0.71253 0.638548,1.47284 0.103817,0.76032 0.311624,1.58084 0.461793,1.82337 0.292732,0.47279 0.283795,0.47759 -0.385966,0.20734 z m 6.438196,-0.0179 c -0.388056,-0.0933 -0.864306,-0.3309 -1.058333,-0.5279 -0.440971,-0.44773 1.251746,0.004 1.74625,0.46632 0.184324,0.17222 0.263699,0.29471 0.176387,0.27221 -0.08731,-0.0225 -0.47625,-0.11729 -0.864304,-0.21063 z m -0.120634,-1.11764 c -0.347655,-0.22034 -0.23907,-0.34484 0.408765,-0.46868 0.637837,-0.12194 0.831787,-0.0373 0.700252,0.30545 -0.209955,0.54713 -0.44803,0.58217 -1.109017,0.16323 z m -0.232145,-1.10026 c -0.119915,-0.19403 -0.04991,-0.35278 0.155569,-0.35278 0.205478,0 0.373597,0.15875 0.373597,0.35278 0,0.19403 -0.07,0.35278 -0.155567,0.35278 -0.08556,0 -0.253682,-0.15875 -0.373599,-0.35278 z m 0.264583,-0.71655 c -1.043025,-0.41924 -1.001781,-0.55058 0.15698,-0.49985 0.522904,0.0229 1.012383,0.22657 1.087734,0.45262 0.15944,0.47833 -0.143587,0.48983 -1.244714,0.0472 z m -6.531838,-0.85407 c -0.527997,-0.38608 -0.428156,-0.48942 0.839886,-0.86933 0.791514,-0.23715 1.528117,-0.34217 1.636895,-0.23339 0.108778,0.10878 0.37384,0.0517 0.589023,-0.12693 0.254921,-0.21156 0.678627,-0.0261 1.216015,0.53223 0.62806,0.65255 0.694697,0.85693 0.279397,0.85693 -0.299958,0 -0.639204,-0.15182 -0.753883,-0.33737 -0.114678,-0.18555 -0.441547,-0.24794 -0.726376,-0.13865 -0.284827,0.1093 -0.517869,0.028 -0.517869,-0.18072 0,-0.45961 -1.092338,-0.12316 -1.599293,0.49259 -0.290753,0.35315 -0.485894,0.35409 -0.963795,0.005 z m 8.027588,-0.19902 c -0.121869,-0.19719 -0.369366,-0.2672 -0.549986,-0.15557 -0.180621,0.11163 -0.328401,0.0348 -0.328401,-0.17063 0,-0.20549 0.225142,-0.3736 0.500311,-0.3736 0.275175,0 0.730938,-0.0885 1.012812,-0.19667 0.291637,-0.11191 0.61161,0.0616 0.742484,0.40268 0.187439,0.48845 0.136401,0.52167 -0.275847,0.17953 -0.310335,-0.25755 -0.586999,-0.28848 -0.71583,-0.08 -0.115496,0.18688 -0.01058,0.42018 0.233177,0.51845 0.317196,0.12788 0.323739,0.18659 0.02305,0.20652 -0.231082,0.0153 -0.519867,-0.13349 -0.641737,-0.33068 z m -12.872832,-0.34702 c 0,-0.19403 0.168119,-0.35278 0.373596,-0.35278 0.20548,0 0.275486,0.15875 0.155569,0.35278 -0.119914,0.19402 -0.288033,0.35277 -0.373596,0.35277 -0.08556,0 -0.155569,-0.15875 -0.155569,-0.35277 z m 10.052482,-0.35006 c 0.103574,-0.16759 -0.117152,-0.40166 -0.4905,-0.52015 -0.373354,-0.1185 -0.881293,-0.45941 -1.128752,-0.75759 -0.291349,-0.35105 -0.0035,-0.27873 0.816644,0.20517 0.905156,0.53406 1.552946,0.67849 2.270154,0.50617 0.551971,-0.13263 0.906082,-0.13453 0.786911,-0.004 -0.341297,0.37316 -2.46456,0.91059 -2.254457,0.57064 z m -5.795631,-0.33181 c -0.393645,-0.25041 -0.237361,-0.44577 0.705556,-0.88194 0.918263,-0.42477 0.997897,-0.52097 0.329258,-0.39773 -0.795107,0.14655 -0.821158,0.11703 -0.264583,-0.29976 0.681257,-0.51017 0.858702,-1.1045 0.210076,-0.70363 -0.240191,0.14845 -0.31198,0.0975 -0.174987,-0.12415 0.384429,-0.62202 1.993384,-0.0883 1.993384,0.66127 0,0.19403 -0.156932,0.25579 -0.348737,0.13725 -0.199977,-0.1236 -0.259117,0.018 -0.138647,0.33195 0.115848,0.3019 0.02556,0.54749 -0.201247,0.54749 -0.22624,0 -0.31323,0.15875 -0.193313,0.35278 0.119915,0.19403 0.06289,0.35278 -0.126716,0.35278 -0.189611,0 -0.556168,0.0777 -0.81457,0.17268 -0.258406,0.095 -0.697368,0.0279 -0.975474,-0.14899 z m 2.997774,-0.83265 c 0.132479,-0.34792 0.329739,-0.54372 0.438354,-0.4351 0.108616,0.10862 2.24e-4,0.39328 -0.240872,0.63258 -0.348408,0.34581 -0.388929,0.30529 -0.197482,-0.19748 z m 2.97593,-0.1509 c -0.485069,-0.087 -1.035735,-0.3065 -1.223698,-0.48774 -0.436996,-0.42135 1.973593,0.009 2.440781,0.43592 0.353936,0.32329 0.307245,0.32528 -1.217083,0.0518 z m -0.705556,-1.15681 c 0,-0.19402 0.225144,-0.35277 0.500313,-0.35277 0.275175,0 0.751425,-0.0964 1.058334,-0.21414 0.36618,-0.14051 0.558019,-0.0192 0.558019,0.35278 0,0.39472 -0.321461,0.56691 -1.058333,0.56691 -0.582083,0 -1.058333,-0.15875 -1.058333,-0.35278 z m 0.537821,-1.04433 c -0.155192,-0.2511 -0.08878,-0.56102 0.152117,-0.7099 0.31664,-0.1957 0.288308,-0.31768 -0.109212,-0.47022 -0.3608,-0.13846 -0.586045,0.0478 -0.687092,0.56826 -0.121234,0.62441 -0.159625,0.5819 -0.198371,-0.21966 -0.04161,-0.86084 0.05234,-0.96206 0.701694,-0.75596 0.50452,0.16013 0.670782,0.11021 0.508346,-0.15262 -0.132762,-0.21481 -0.08461,-0.39057 0.107011,-0.39057 0.548132,0 1.457132,1.05006 1.457132,1.68326 0,0.43732 -0.09817,0.47635 -0.411057,0.16346 -0.312894,-0.31289 -0.510654,-0.27485 -0.828098,0.15928 -0.32235,0.44084 -0.479573,0.46915 -0.69247,0.12467 z m 3.323116,-0.40343 c -0.507651,-0.94856 -0.220094,-1.99424 0.911532,-3.31474 0.700371,-0.81726 0.867082,-0.89762 0.731888,-0.35278 -0.63087,2.54247 -0.642014,3.35139 -0.04617,3.35139 0.851496,0 0.477994,0.79404 -0.439356,0.93403 -0.494065,0.0754 -0.903899,-0.1433 -1.157899,-0.6179 z m -6.071677,-0.007 c 0.2393,-0.2411 0.52396,-0.34949 0.632574,-0.24088 0.108617,0.10862 -0.08718,0.30588 -0.435091,0.43836 -0.502777,0.19145 -0.543301,0.15092 -0.197483,-0.19748 z m 3.229015,-2.70014 c 0.417195,-0.78291 1.098391,-0.7821 1.098391,0.001 0,0.21491 -0.104457,0.2863 -0.232124,0.15863 -0.127669,-0.12767 -0.471159,-0.0351 -0.763312,0.20579 -0.463627,0.38221 -0.476721,0.3357 -0.102955,-0.36572 z"
       id="path18451" />
  </g>
</svg>
