<?xml version="1.0" encoding="UTF-8" standalone="no"?>
<svg
   xmlns:dc="http://purl.org/dc/elements/1.1/"
   xmlns:cc="http://creativecommons.org/ns#"
   xmlns:rdf="http://www.w3.org/1999/02/22-rdf-syntax-ns#"
   xmlns:svg="http://www.w3.org/2000/svg"
   xmlns="http://www.w3.org/2000/svg"
   xmlns:sodipodi="http://sodipodi.sourceforge.net/DTD/sodipodi-0.dtd"
   xmlns:inkscape="http://www.inkscape.org/namespaces/inkscape"
   version="1.1"
   id="svg912"
   width="200"
   height="200"
   viewBox="0 0 200 200.00001"
   sodipodi:docname="pic-env.jpg.svg"
   inkscape:version="1.0.2 (e86c870879, 2021-01-15)">
  <metadata
     id="metadata918">
    <rdf:RDF>
      <cc:Work
         rdf:about="">
        <dc:format>image/svg+xml</dc:format>
        <dc:type
           rdf:resource="http://purl.org/dc/dcmitype/StillImage" />
        <dc:title></dc:title>
      </cc:Work>
    </rdf:RDF>
  </metadata>
  <defs
     id="defs916" />
  <sodipodi:namedview
     pagecolor="#ffffff"
     bordercolor="#666666"
     borderopacity="1"
     objecttolerance="10"
     gridtolerance="10"
     guidetolerance="10"
     inkscape:pageopacity="0"
     inkscape:pageshadow="2"
     inkscape:window-width="1920"
     inkscape:window-height="1016"
     id="namedview914"
     showgrid="false"
     inkscape:zoom="1.678711"
     inkscape:cx="44.652243"
     inkscape:cy="178.2442"
     inkscape:window-x="0"
     inkscape:window-y="27"
     inkscape:window-maximized="1"
     inkscape:current-layer="g920" />
  <g
     inkscape:groupmode="layer"
     inkscape:label="Image"
     id="g920">
    <rect
       style="fill:#f4e3d7;fill-opacity:1;fill-rule:evenodd;stroke:#000000;stroke-width:1.05059;stroke-linecap:butt;stroke-miterlimit:4;stroke-dasharray:none"
       id="rect930-3-7"
       width="140.26297"
       height="146.63693"
       x="68.615799"
       y="-41.022762"
       ry="0"
       transform="rotate(31.751623)" />
    <rect
       style="fill:#f4e3d7;fill-opacity:1;fill-rule:evenodd;stroke:#000000;stroke-width:1.05059;stroke-linecap:butt;stroke-miterlimit:4;stroke-dasharray:none"
       id="rect930-3-3"
       width="140.26297"
       height="146.63693"
       x="25.786768"
       y="16.229019"
       ry="0"
       transform="rotate(6.0457317)" />
    <rect
       style="fill:#f4e3d7;fill-opacity:1;fill-rule:evenodd;stroke:#000000;stroke-width:1.05059;stroke-linecap:butt;stroke-miterlimit:4;stroke-dasharray:none"
       id="rect930-3"
       width="140.26297"
       height="146.63693"
       x="47.140377"
       y="-2.1606441"
       ry="0"
       transform="rotate(14.590213)" />
    <rect
       style="fill:#acfaff;fill-opacity:1;fill-rule:evenodd;stroke:#000000;stroke-width:0.420236;stroke-linecap:butt;stroke-miterlimit:4;stroke-dasharray:none"
       id="rect930"
       width="125.16763"
       height="98.637817"
       x="54.348293"
       y="6.8714881"
       ry="0"
       transform="rotate(14.590213)" />
    <path
       style="fill:#c48814;fill-opacity:1;stroke:#e3bf00;stroke-width:0.235483px;stroke-linecap:butt;stroke-linejoin:miter;stroke-opacity:1"
       d="M 146.19302,144.33954 39.292604,116.73192 112.41245,88.090367 Z"
       id="path924" />
    <path
       style="fill:#1ddd26;fill-opacity:1;stroke:#00c800;stroke-width:0.235854;stroke-linecap:butt;stroke-linejoin:miter;stroke-miterlimit:4;stroke-dasharray:none;stroke-opacity:1"
       d="m 86.478571,98.446246 -41.545148,-46.64165 -16.109184,61.764324 10.468365,3.163 z"
       id="path926" />
    <circle
       style="fill:#fbff01;fill-opacity:1;fill-rule:evenodd;stroke:#f67d00;stroke-width:0.397072;stroke-linecap:square;stroke-miterlimit:4;stroke-dasharray:none;stroke-opacity:1"
       id="path928"
       cx="111.97214"
       cy="36.168827"
       transform="rotate(14.590213)"
       r="10.895878" />
    <path
       style="fill:none;stroke:#000000;stroke-width:0.223698px;stroke-linecap:square;stroke-linejoin:miter;stroke-opacity:1"
       d="m 139.36413,68.73029 c 0.17142,0.455399 0.11936,0.798938 -0.0843,1.263988 0.61001,-0.362965 0.8223,-0.248573 1.23496,-0.416295"
       id="path970"
       sodipodi:nodetypes="ccc" />
    <path
       style="fill:none;stroke:#000000;stroke-width:0.223698px;stroke-linecap:square;stroke-linejoin:miter;stroke-opacity:1"
       d="m 136.29883,69.542758 c 0.17144,0.4554 0.11936,0.798939 -0.0843,1.263978 0.61001,-0.362955 0.82229,-0.248572 1.23496,-0.416286"
       id="path970-6"
       sodipodi:nodetypes="ccc" />
    <path
       style="fill:none;stroke:#000000;stroke-width:0.223698px;stroke-linecap:square;stroke-linejoin:miter;stroke-opacity:1"
       d="m 138.58347,71.607194 c 0.17142,0.4554 0.11936,0.798939 -0.0843,1.26398 0.61001,-0.362957 0.82228,-0.248573 1.23494,-0.416287"
       id="path970-0"
       sodipodi:nodetypes="ccc" />
    <path
       style="fill:none;stroke:#000000;stroke-width:0.223698px;stroke-linecap:square;stroke-linejoin:miter;stroke-opacity:1"
       d="m 130.42455,67.332122 c 0.17144,0.455409 0.11936,0.798948 -0.0843,1.263987 0.61001,-0.362955 0.82229,-0.248572 1.23496,-0.416285"
       id="path970-62"
       sodipodi:nodetypes="ccc" />
    <path
       style="fill:none;stroke:#000000;stroke-width:0.223698px;stroke-linecap:square;stroke-linejoin:miter;stroke-opacity:1"
       d="m 141.38078,72.814705 c 0.17142,0.455399 0.11935,0.798939 -0.0843,1.263979 0.61001,-0.362956 0.82229,-0.248572 1.23496,-0.416286"
       id="path970-61"
       sodipodi:nodetypes="ccc" />
    <path
       style="fill:none;stroke:#000000;stroke-width:0.223698px;stroke-linecap:square;stroke-linejoin:miter;stroke-opacity:1"
       d="m 129.00561,75.399827 c 0.17143,0.4554 0.11936,0.798939 -0.0843,1.263978 0.61001,-0.362955 0.82229,-0.248572 1.23496,-0.416285"
       id="path970-8"
       sodipodi:nodetypes="ccc" />
    <path
       style="fill:none;stroke:#000000;stroke-width:0.223698px;stroke-linecap:square;stroke-linejoin:miter;stroke-opacity:1"
       d="m 138.61228,78.053436 c 0.17143,0.455409 0.11936,0.798948 -0.0843,1.263988 0.61001,-0.362956 0.82229,-0.248573 1.23496,-0.416286"
       id="path970-7"
       sodipodi:nodetypes="ccc" />
    <path
       style="fill:none;stroke:#000000;stroke-width:0.223698px;stroke-linecap:square;stroke-linejoin:miter;stroke-opacity:1"
       d="m 135.74808,66.105874 c 0.17142,0.455399 0.11936,0.798938 -0.0843,1.263987 0.61,-0.362964 0.82229,-0.248581 1.23495,-0.416295"
       id="path970-9"
       sodipodi:nodetypes="ccc" />
    <path
       style="fill:none;stroke:#000000;stroke-width:0.223698px;stroke-linecap:square;stroke-linejoin:miter;stroke-opacity:1"
       d="m 134.34204,74.103735 c 0.17143,0.455399 0.11935,0.798939 -0.0843,1.263988 0.61001,-0.362965 0.82228,-0.248573 1.23496,-0.416296"
       id="path970-2"
       sodipodi:nodetypes="ccc" />
    <path
       style="fill:none;stroke:#000000;stroke-width:0.223698px;stroke-linecap:square;stroke-linejoin:miter;stroke-opacity:1"
       d="m 123.54748,68.407849 c 0.17141,0.4554 0.11935,0.798939 -0.0843,1.26398 0.61001,-0.362957 0.82229,-0.248574 1.23496,-0.416287"
       id="path970-02"
       sodipodi:nodetypes="ccc" />
  </g>
</svg>
